<svg width="351" height="511" viewBox="0 0 351 511" fill="none" xmlns="http://www.w3.org/2000/svg">
<g filter="url(#filter0_d_527_140)">
<rect x="194.809" width="109" height="45" rx="22.5" fill="#FCE8E8" shape-rendering="crispEdges"/>
<path d="M218.715 23.7H225.036L225.057 24.876H218.589L218.715 23.7ZM221.571 15.888L221.907 16.518L217.749 28.635C217.749 28.705 217.84 28.775 218.022 28.845C218.204 28.901 218.428 28.943 218.694 28.971C218.974 28.999 219.247 29.013 219.513 29.013H219.828V30H214.977V29.013H215.082C215.474 29.013 215.782 28.964 216.006 28.866C216.23 28.754 216.412 28.502 216.552 28.11L221.046 15.09H223.188L227.85 28.425C227.948 28.691 228.109 28.859 228.333 28.929C228.571 28.985 228.865 29.013 229.215 29.013H229.32V30H223.86V29.013H224.217C224.483 29.013 224.756 29.006 225.036 28.992C225.316 28.978 225.547 28.957 225.729 28.929C225.925 28.887 226.023 28.845 226.023 28.803L221.571 15.888ZM237.475 23.532V24.582C236.775 24.652 236.152 24.743 235.606 24.855C235.06 24.967 234.584 25.1 234.178 25.254C233.786 25.408 233.464 25.59 233.212 25.8C232.96 25.996 232.771 26.227 232.645 26.493C232.519 26.759 232.456 27.053 232.456 27.375C232.456 27.711 232.533 28.005 232.687 28.257C232.841 28.509 233.058 28.705 233.338 28.845C233.618 28.985 233.94 29.055 234.304 29.055C234.794 29.055 235.228 28.936 235.606 28.698C235.998 28.46 236.341 28.124 236.635 27.69C236.943 27.256 237.209 26.745 237.433 26.157V27.648C237.223 28.166 236.943 28.621 236.593 29.013C236.243 29.391 235.837 29.685 235.375 29.895C234.913 30.105 234.388 30.21 233.8 30.21C233.198 30.21 232.645 30.098 232.141 29.874C231.651 29.65 231.252 29.328 230.944 28.908C230.65 28.474 230.503 27.97 230.503 27.396C230.503 26.822 230.65 26.325 230.944 25.905C231.238 25.471 231.679 25.1 232.267 24.792C232.855 24.484 233.583 24.232 234.451 24.036C235.319 23.826 236.327 23.658 237.475 23.532ZM237.118 30V27.753L236.908 27.69V22.65C236.908 22.062 236.824 21.6 236.656 21.264C236.502 20.914 236.271 20.669 235.963 20.529C235.655 20.389 235.277 20.319 234.829 20.319C234.143 20.319 233.576 20.459 233.128 20.739C232.694 21.019 232.344 21.348 232.078 21.726C232.05 21.558 232.057 21.404 232.099 21.264C232.141 21.124 232.204 20.998 232.288 20.886C232.372 20.774 232.47 20.676 232.582 20.592C232.708 20.508 232.841 20.438 232.981 20.382V22.545H231.154V20.382C231.364 20.214 231.644 20.032 231.994 19.836C232.358 19.64 232.792 19.472 233.296 19.332C233.8 19.192 234.353 19.122 234.955 19.122C235.445 19.122 235.914 19.178 236.362 19.29C236.81 19.402 237.216 19.591 237.58 19.857C237.944 20.109 238.231 20.452 238.441 20.886C238.651 21.306 238.756 21.831 238.756 22.461V28.299C238.756 28.495 238.833 28.649 238.987 28.761C239.141 28.873 239.344 28.95 239.596 28.992C239.862 29.034 240.163 29.055 240.499 29.055V30H237.118ZM248.29 27.228C248.29 26.934 248.213 26.689 248.059 26.493C247.905 26.297 247.695 26.136 247.429 26.01C247.177 25.87 246.883 25.758 246.547 25.674C246.225 25.576 245.882 25.485 245.518 25.401C245.084 25.289 244.65 25.163 244.216 25.023C243.796 24.883 243.411 24.701 243.061 24.477C242.711 24.239 242.431 23.945 242.221 23.595C242.011 23.231 241.906 22.776 241.906 22.23C241.906 21.614 242.06 21.075 242.368 20.613C242.676 20.137 243.117 19.773 243.691 19.521C244.279 19.255 244.986 19.122 245.812 19.122C246.456 19.122 247.016 19.171 247.492 19.269C247.982 19.367 248.388 19.493 248.71 19.647C249.032 19.787 249.27 19.92 249.424 20.046V22.335H247.618V20.361C247.772 20.361 247.898 20.389 247.996 20.445C248.108 20.487 248.192 20.557 248.248 20.655C248.304 20.739 248.339 20.844 248.353 20.97C248.367 21.096 248.353 21.236 248.311 21.39C248.157 21.152 247.954 20.956 247.702 20.802C247.45 20.634 247.163 20.515 246.841 20.445C246.533 20.361 246.19 20.319 245.812 20.319C245.084 20.319 244.538 20.48 244.174 20.802C243.81 21.11 243.628 21.509 243.628 21.999C243.628 22.307 243.705 22.566 243.859 22.776C244.027 22.986 244.244 23.161 244.51 23.301C244.79 23.427 245.098 23.539 245.434 23.637C245.784 23.735 246.148 23.833 246.526 23.931C246.946 24.029 247.366 24.148 247.786 24.288C248.206 24.428 248.584 24.61 248.92 24.834C249.27 25.058 249.543 25.345 249.739 25.695C249.949 26.045 250.054 26.486 250.054 27.018C250.054 27.62 249.886 28.166 249.55 28.656C249.214 29.132 248.731 29.51 248.101 29.79C247.485 30.07 246.736 30.21 245.854 30.21C245.182 30.21 244.573 30.154 244.027 30.042C243.495 29.944 243.019 29.811 242.599 29.643C242.179 29.461 241.801 29.265 241.465 29.055V26.64H243.313V29.307C243.103 29.181 242.942 29.055 242.83 28.929C242.718 28.803 242.641 28.677 242.599 28.551C242.557 28.425 242.543 28.299 242.557 28.173C242.571 28.033 242.599 27.893 242.641 27.753C242.879 28.047 243.159 28.285 243.481 28.467C243.803 28.649 244.16 28.789 244.552 28.887C244.944 28.971 245.371 29.013 245.833 29.013C246.337 29.013 246.771 28.943 247.135 28.803C247.499 28.663 247.779 28.46 247.975 28.194C248.185 27.928 248.29 27.606 248.29 27.228ZM250.907 20.529V19.437H251.012C251.432 19.437 251.789 19.409 252.083 19.353C252.391 19.297 252.622 19.192 252.776 19.038C252.93 18.884 253.007 18.667 253.007 18.387L254.372 19.332H257.9V20.529H250.907ZM254.729 26.346C254.729 26.962 254.806 27.466 254.96 27.858C255.128 28.236 255.359 28.516 255.653 28.698C255.947 28.866 256.29 28.95 256.682 28.95C256.976 28.95 257.249 28.922 257.501 28.866C257.753 28.81 257.97 28.754 258.152 28.698V29.895C258.026 29.951 257.872 30 257.69 30.042C257.522 30.098 257.34 30.14 257.144 30.168C256.948 30.196 256.738 30.21 256.514 30.21C255.898 30.21 255.31 30.098 254.75 29.874C254.19 29.65 253.735 29.258 253.385 28.698C253.035 28.138 252.86 27.361 252.86 26.367V19.668L253.007 19.521V16.392H254.729V26.346ZM263.025 14.565V28.845C263.025 28.887 263.109 28.929 263.277 28.971C263.445 28.999 263.648 29.02 263.886 29.034C264.124 29.048 264.341 29.055 264.537 29.055H264.6V30H259.371V29.055H259.413C259.749 29.055 260.043 29.034 260.295 28.992C260.561 28.95 260.771 28.873 260.925 28.761C261.079 28.649 261.156 28.495 261.156 28.299V16.518C261.156 16.308 261.1 16.147 260.988 16.035C260.876 15.923 260.708 15.832 260.484 15.762C260.26 15.692 259.966 15.629 259.602 15.573L259.371 15.531V14.565H263.025ZM271.656 30H266.448V29.055H266.49C266.686 29.055 266.903 29.048 267.141 29.034C267.379 29.02 267.582 28.999 267.75 28.971C267.932 28.929 268.023 28.887 268.023 28.845V22.734C268.023 22.202 267.967 21.768 267.855 21.432C267.743 21.096 267.554 20.851 267.288 20.697C267.036 20.529 266.686 20.445 266.238 20.445C265.762 20.445 265.314 20.536 264.894 20.718C264.474 20.9 264.082 21.173 263.718 21.537C263.354 21.887 263.004 22.321 262.668 22.839V21.411C263.046 20.893 263.424 20.466 263.802 20.13C264.194 19.794 264.607 19.542 265.041 19.374C265.489 19.206 265.986 19.122 266.532 19.122C267.204 19.122 267.792 19.241 268.296 19.479C268.8 19.717 269.192 20.088 269.472 20.592C269.752 21.082 269.892 21.719 269.892 22.503V28.299C269.892 28.607 270.053 28.81 270.375 28.908C270.711 29.006 271.124 29.055 271.614 29.055H271.656V30ZM280.234 23.532V24.582C279.534 24.652 278.911 24.743 278.365 24.855C277.819 24.967 277.343 25.1 276.937 25.254C276.545 25.408 276.223 25.59 275.971 25.8C275.719 25.996 275.53 26.227 275.404 26.493C275.278 26.759 275.215 27.053 275.215 27.375C275.215 27.711 275.292 28.005 275.446 28.257C275.6 28.509 275.817 28.705 276.097 28.845C276.377 28.985 276.699 29.055 277.063 29.055C277.553 29.055 277.987 28.936 278.365 28.698C278.757 28.46 279.1 28.124 279.394 27.69C279.702 27.256 279.968 26.745 280.192 26.157V27.648C279.982 28.166 279.702 28.621 279.352 29.013C279.002 29.391 278.596 29.685 278.134 29.895C277.672 30.105 277.147 30.21 276.559 30.21C275.957 30.21 275.404 30.098 274.9 29.874C274.41 29.65 274.011 29.328 273.703 28.908C273.409 28.474 273.262 27.97 273.262 27.396C273.262 26.822 273.409 26.325 273.703 25.905C273.997 25.471 274.438 25.1 275.026 24.792C275.614 24.484 276.342 24.232 277.21 24.036C278.078 23.826 279.086 23.658 280.234 23.532ZM279.877 30V27.753L279.667 27.69V22.65C279.667 22.062 279.583 21.6 279.415 21.264C279.261 20.914 279.03 20.669 278.722 20.529C278.414 20.389 278.036 20.319 277.588 20.319C276.902 20.319 276.335 20.459 275.887 20.739C275.453 21.019 275.103 21.348 274.837 21.726C274.809 21.558 274.816 21.404 274.858 21.264C274.9 21.124 274.963 20.998 275.047 20.886C275.131 20.774 275.229 20.676 275.341 20.592C275.467 20.508 275.6 20.438 275.74 20.382V22.545H273.913V20.382C274.123 20.214 274.403 20.032 274.753 19.836C275.117 19.64 275.551 19.472 276.055 19.332C276.559 19.192 277.112 19.122 277.714 19.122C278.204 19.122 278.673 19.178 279.121 19.29C279.569 19.402 279.975 19.591 280.339 19.857C280.703 20.109 280.99 20.452 281.2 20.886C281.41 21.306 281.515 21.831 281.515 22.461V28.299C281.515 28.495 281.592 28.649 281.746 28.761C281.9 28.873 282.103 28.95 282.355 28.992C282.621 29.034 282.922 29.055 283.258 29.055V30H279.877Z" fill="black"/>
<rect x="195.309" y="0.5" width="108" height="44" rx="22" stroke="black" shape-rendering="crispEdges"/>
</g>
<g filter="url(#filter1_d_527_140)">
<rect y="287.588" width="145" height="45" rx="22.5" fill="#71CDF5" shape-rendering="crispEdges"/>
<path d="M20.945 303.665V302.678H27.371C28.547 302.678 29.611 302.853 30.563 303.203C31.529 303.539 32.362 304.029 33.062 304.673C33.762 305.317 34.301 306.101 34.679 307.025C35.057 307.935 35.246 308.957 35.246 310.091C35.246 311.225 35.057 312.254 34.679 313.178C34.301 314.088 33.762 314.879 33.062 315.551C32.362 316.209 31.529 316.713 30.563 317.063C29.611 317.413 28.547 317.588 27.371 317.588H20.945V316.601H21.197C21.715 316.601 22.142 316.552 22.478 316.454C22.814 316.356 22.982 316.153 22.982 315.845V304.421C22.982 304.141 22.814 303.945 22.478 303.833C22.142 303.721 21.715 303.665 21.197 303.665H20.945ZM27.371 303.917H24.914V316.349H27.371C28.267 316.349 29.065 316.209 29.765 315.929C30.479 315.649 31.088 315.243 31.592 314.711C32.096 314.165 32.481 313.507 32.747 312.737C33.013 311.953 33.146 311.071 33.146 310.091C33.146 309.111 33.013 308.236 32.747 307.466C32.481 306.696 32.096 306.052 31.592 305.534C31.088 305.002 30.479 304.603 29.765 304.337C29.065 304.057 28.267 303.917 27.371 303.917ZM39.2217 312.338C39.2217 313.01 39.3057 313.612 39.4737 314.144C39.6557 314.676 39.9077 315.124 40.2297 315.488C40.5517 315.852 40.9297 316.132 41.3637 316.328C41.7977 316.51 42.2667 316.601 42.7707 316.601C43.3447 316.601 43.8347 316.489 44.2407 316.265C44.6607 316.041 45.0107 315.768 45.2907 315.446C45.5847 315.11 45.8297 314.781 46.0257 314.459L47.0127 315.341C46.7467 315.789 46.4177 316.202 46.0257 316.58C45.6337 316.958 45.1647 317.259 44.6187 317.483C44.0867 317.693 43.4567 317.798 42.7287 317.798C41.7067 317.798 40.7827 317.574 39.9567 317.126C39.1447 316.678 38.5007 316.041 38.0247 315.215C37.5487 314.389 37.3107 313.416 37.3107 312.296C37.3107 311.19 37.5347 310.224 37.9827 309.398C38.4307 308.558 39.0327 307.9 39.7887 307.424C40.5587 306.948 41.4127 306.71 42.3507 306.71C43.1207 306.71 43.7927 306.836 44.3667 307.088C44.9547 307.34 45.4447 307.718 45.8367 308.222C46.2427 308.712 46.5507 309.335 46.7607 310.091C46.9707 310.847 47.0757 311.729 47.0757 312.737H38.8437V311.561H45.6687L45.0807 312.023C45.0667 311.323 45.0037 310.714 44.8917 310.196C44.7797 309.678 44.6117 309.251 44.3877 308.915C44.1637 308.579 43.8837 308.327 43.5477 308.159C43.2117 307.991 42.8127 307.907 42.3507 307.907C41.9167 307.907 41.5107 308.012 41.1327 308.222C40.7547 308.418 40.4187 308.712 40.1247 309.104C39.8447 309.482 39.6207 309.944 39.4527 310.49C39.2987 311.036 39.2217 311.652 39.2217 312.338ZM57.01 308.306C56.996 308.222 56.898 308.145 56.716 308.075C56.548 308.005 56.331 307.956 56.065 307.928C55.813 307.886 55.547 307.865 55.267 307.865H55.225V306.92H59.719V307.865H59.677C59.467 307.865 59.257 307.893 59.047 307.949C58.851 307.991 58.676 308.075 58.522 308.201C58.368 308.327 58.242 308.509 58.144 308.747L54.763 317.588H52.831L49.345 308.579C49.275 308.383 49.17 308.236 49.03 308.138C48.89 308.04 48.715 307.97 48.505 307.928C48.309 307.886 48.078 307.865 47.812 307.865H47.77V306.92H52.915V307.865H52.873C52.579 307.865 52.285 307.872 51.991 307.886C51.711 307.9 51.48 307.921 51.298 307.949C51.116 307.963 51.025 307.998 51.025 308.054L54.175 316.391L53.965 316.433L57.01 308.306ZM62.293 312.338C62.293 313.01 62.377 313.612 62.545 314.144C62.727 314.676 62.979 315.124 63.301 315.488C63.623 315.852 64.001 316.132 64.435 316.328C64.869 316.51 65.338 316.601 65.842 316.601C66.416 316.601 66.906 316.489 67.312 316.265C67.732 316.041 68.082 315.768 68.362 315.446C68.656 315.11 68.901 314.781 69.097 314.459L70.084 315.341C69.818 315.789 69.489 316.202 69.097 316.58C68.705 316.958 68.236 317.259 67.69 317.483C67.158 317.693 66.528 317.798 65.8 317.798C64.778 317.798 63.854 317.574 63.028 317.126C62.216 316.678 61.572 316.041 61.096 315.215C60.62 314.389 60.382 313.416 60.382 312.296C60.382 311.19 60.606 310.224 61.054 309.398C61.502 308.558 62.104 307.9 62.86 307.424C63.63 306.948 64.484 306.71 65.422 306.71C66.192 306.71 66.864 306.836 67.438 307.088C68.026 307.34 68.516 307.718 68.908 308.222C69.314 308.712 69.622 309.335 69.832 310.091C70.042 310.847 70.147 311.729 70.147 312.737H61.915V311.561H68.74L68.152 312.023C68.138 311.323 68.075 310.714 67.963 310.196C67.851 309.678 67.683 309.251 67.459 308.915C67.235 308.579 66.955 308.327 66.619 308.159C66.283 307.991 65.884 307.907 65.422 307.907C64.988 307.907 64.582 308.012 64.204 308.222C63.826 308.418 63.49 308.712 63.196 309.104C62.916 309.482 62.692 309.944 62.524 310.49C62.37 311.036 62.293 311.652 62.293 312.338ZM75.0833 302.153V315.887C75.0833 316.195 75.2443 316.398 75.5663 316.496C75.8883 316.594 76.3013 316.643 76.8053 316.643H76.8473V317.588H71.4503V316.643H71.4923C71.9963 316.643 72.4093 316.594 72.7313 316.496C73.0533 316.398 73.2143 316.195 73.2143 315.887V304.106C73.2143 303.896 73.1583 303.735 73.0463 303.623C72.9343 303.511 72.7663 303.42 72.5423 303.35C72.3183 303.28 72.0243 303.217 71.6603 303.161L71.4293 303.119V302.153H75.0833ZM89.1448 312.254C89.1448 313.332 88.9068 314.291 88.4308 315.131C87.9688 315.971 87.3248 316.629 86.4988 317.105C85.6728 317.567 84.7278 317.798 83.6638 317.798C82.5998 317.798 81.6548 317.567 80.8288 317.105C80.0028 316.629 79.3518 315.971 78.8758 315.131C78.4138 314.291 78.1828 313.332 78.1828 312.254C78.1828 311.442 78.3158 310.7 78.5818 310.028C78.8478 309.342 79.2258 308.754 79.7158 308.264C80.2198 307.774 80.8008 307.396 81.4588 307.13C82.1308 306.85 82.8658 306.71 83.6638 306.71C84.4618 306.71 85.1898 306.85 85.8478 307.13C86.5198 307.396 87.1008 307.774 87.5908 308.264C88.0948 308.754 88.4798 309.342 88.7458 310.028C89.0118 310.7 89.1448 311.442 89.1448 312.254ZM80.1568 312.254C80.1568 313.122 80.2968 313.885 80.5768 314.543C80.8708 315.201 81.2768 315.712 81.7948 316.076C82.3268 316.426 82.9498 316.601 83.6638 316.601C84.3918 316.601 85.0148 316.426 85.5328 316.076C86.0508 315.712 86.4498 315.201 86.7298 314.543C87.0238 313.885 87.1708 313.122 87.1708 312.254C87.1708 311.372 87.0238 310.609 86.7298 309.965C86.4498 309.307 86.0508 308.803 85.5328 308.453C85.0148 308.089 84.3918 307.907 83.6638 307.907C82.9498 307.907 82.3268 308.089 81.7948 308.453C81.2768 308.803 80.8708 309.307 80.5768 309.965C80.2968 310.609 80.1568 311.372 80.1568 312.254ZM96.5842 322.271H90.8092V321.326H90.8512C91.1872 321.326 91.4812 321.305 91.7332 321.263C91.9992 321.221 92.2022 321.144 92.3422 321.032C92.4962 320.92 92.5732 320.766 92.5732 320.57V308.873C92.5732 308.663 92.5172 308.509 92.4052 308.411C92.2932 308.299 92.1182 308.208 91.8802 308.138C91.6562 308.068 91.3692 307.998 91.0192 307.928L90.8092 307.886V306.92H94.2532V309.566L94.4422 309.818V321.116C94.4422 321.158 94.5332 321.193 94.7152 321.221C94.8972 321.263 95.1072 321.291 95.3452 321.305C95.5832 321.319 95.7932 321.326 95.9752 321.326H96.5842V322.271ZM97.8652 317.798C97.3052 317.798 96.8082 317.721 96.3742 317.567C95.9402 317.399 95.5342 317.154 95.1562 316.832C94.7922 316.496 94.4352 316.062 94.0852 315.53V313.703C94.4072 314.347 94.7502 314.886 95.1142 315.32C95.4922 315.74 95.9052 316.062 96.3532 316.286C96.8012 316.496 97.2842 316.601 97.8022 316.601C98.3062 316.601 98.7542 316.496 99.1462 316.286C99.5382 316.076 99.8602 315.775 100.112 315.383C100.378 314.991 100.574 314.529 100.7 313.997C100.84 313.451 100.91 312.849 100.91 312.191C100.91 311.533 100.84 310.945 100.7 310.427C100.574 309.895 100.385 309.44 100.133 309.062C99.8812 308.684 99.5662 308.397 99.1882 308.201C98.8102 308.005 98.3762 307.907 97.8862 307.907C97.3402 307.907 96.8362 308.026 96.3742 308.264C95.9262 308.488 95.5132 308.831 95.1352 309.293C94.7572 309.741 94.4072 310.294 94.0852 310.952V309.167C94.4632 308.607 94.8412 308.152 95.2192 307.802C95.5972 307.438 96.0102 307.165 96.4582 306.983C96.9202 306.801 97.4382 306.71 98.0122 306.71C98.9922 306.71 99.8462 306.941 100.574 307.403C101.302 307.851 101.869 308.488 102.275 309.314C102.681 310.126 102.884 311.085 102.884 312.191C102.884 313.297 102.674 314.27 102.254 315.11C101.848 315.95 101.267 316.608 100.511 317.084C99.7552 317.56 98.8732 317.798 97.8652 317.798ZM106.733 312.338C106.733 313.01 106.817 313.612 106.985 314.144C107.167 314.676 107.419 315.124 107.741 315.488C108.063 315.852 108.441 316.132 108.875 316.328C109.309 316.51 109.778 316.601 110.282 316.601C110.856 316.601 111.346 316.489 111.752 316.265C112.172 316.041 112.522 315.768 112.802 315.446C113.096 315.11 113.341 314.781 113.537 314.459L114.524 315.341C114.258 315.789 113.929 316.202 113.537 316.58C113.145 316.958 112.676 317.259 112.13 317.483C111.598 317.693 110.968 317.798 110.24 317.798C109.218 317.798 108.294 317.574 107.468 317.126C106.656 316.678 106.012 316.041 105.536 315.215C105.06 314.389 104.822 313.416 104.822 312.296C104.822 311.19 105.046 310.224 105.494 309.398C105.942 308.558 106.544 307.9 107.3 307.424C108.07 306.948 108.924 306.71 109.862 306.71C110.632 306.71 111.304 306.836 111.878 307.088C112.466 307.34 112.956 307.718 113.348 308.222C113.754 308.712 114.062 309.335 114.272 310.091C114.482 310.847 114.587 311.729 114.587 312.737H106.355V311.561H113.18L112.592 312.023C112.578 311.323 112.515 310.714 112.403 310.196C112.291 309.678 112.123 309.251 111.899 308.915C111.675 308.579 111.395 308.327 111.059 308.159C110.723 307.991 110.324 307.907 109.862 307.907C109.428 307.907 109.022 308.012 108.644 308.222C108.266 308.418 107.93 308.712 107.636 309.104C107.356 309.482 107.132 309.944 106.964 310.49C106.81 311.036 106.733 311.652 106.733 312.338ZM123.53 306.773V308.642C123.432 308.6 123.313 308.572 123.173 308.558C123.047 308.53 122.914 308.509 122.774 308.495C122.634 308.481 122.501 308.474 122.375 308.474C121.997 308.474 121.668 308.53 121.388 308.642C121.108 308.74 120.856 308.894 120.632 309.104C120.422 309.314 120.226 309.58 120.044 309.902C119.862 310.224 119.666 310.609 119.456 311.057V309.671C119.666 309.083 119.925 308.572 120.233 308.138C120.555 307.69 120.926 307.34 121.346 307.088C121.78 306.836 122.27 306.71 122.816 306.71C122.956 306.71 123.089 306.717 123.215 306.731C123.355 306.731 123.46 306.745 123.53 306.773ZM116.18 317.588V316.643H116.222C116.726 316.643 117.139 316.594 117.461 316.496C117.783 316.398 117.944 316.195 117.944 315.887V308.873C117.944 308.663 117.888 308.509 117.776 308.411C117.664 308.299 117.489 308.208 117.251 308.138C117.027 308.068 116.74 307.998 116.39 307.928L116.18 307.886V306.92H119.624V310.007L119.813 309.818V315.908C119.813 316.132 119.911 316.3 120.107 316.412C120.317 316.51 120.555 316.573 120.821 316.601C121.101 316.629 121.339 316.643 121.535 316.643H121.892V317.588H116.18Z" fill="black"/>
<rect x="0.5" y="288.088" width="144" height="44" rx="22" stroke="black" shape-rendering="crispEdges"/>
</g>
<g filter="url(#filter2_d_527_140)">
<rect x="215.809" y="462" width="131" height="45" rx="22.5" fill="#5E992B" shape-rendering="crispEdges"/>
<path d="M236.754 478.077V477.09H243.18C244.356 477.09 245.42 477.265 246.372 477.615C247.338 477.951 248.171 478.441 248.871 479.085C249.571 479.729 250.11 480.513 250.488 481.437C250.866 482.347 251.055 483.369 251.055 484.503C251.055 485.637 250.866 486.666 250.488 487.59C250.11 488.5 249.571 489.291 248.871 489.963C248.171 490.621 247.338 491.125 246.372 491.475C245.42 491.825 244.356 492 243.18 492H236.754V491.013H237.006C237.524 491.013 237.951 490.964 238.287 490.866C238.623 490.768 238.791 490.565 238.791 490.257V478.833C238.791 478.553 238.623 478.357 238.287 478.245C237.951 478.133 237.524 478.077 237.006 478.077H236.754ZM243.18 478.329H240.723V490.761H243.18C244.076 490.761 244.874 490.621 245.574 490.341C246.288 490.061 246.897 489.655 247.401 489.123C247.905 488.577 248.29 487.919 248.556 487.149C248.822 486.365 248.955 485.483 248.955 484.503C248.955 483.523 248.822 482.648 248.556 481.878C248.29 481.108 247.905 480.464 247.401 479.946C246.897 479.414 246.288 479.015 245.574 478.749C244.874 478.469 244.076 478.329 243.18 478.329ZM255.031 486.75C255.031 487.422 255.115 488.024 255.283 488.556C255.465 489.088 255.717 489.536 256.039 489.9C256.361 490.264 256.739 490.544 257.173 490.74C257.607 490.922 258.076 491.013 258.58 491.013C259.154 491.013 259.644 490.901 260.05 490.677C260.47 490.453 260.82 490.18 261.1 489.858C261.394 489.522 261.639 489.193 261.835 488.871L262.822 489.753C262.556 490.201 262.227 490.614 261.835 490.992C261.443 491.37 260.974 491.671 260.428 491.895C259.896 492.105 259.266 492.21 258.538 492.21C257.516 492.21 256.592 491.986 255.766 491.538C254.954 491.09 254.31 490.453 253.834 489.627C253.358 488.801 253.12 487.828 253.12 486.708C253.12 485.602 253.344 484.636 253.792 483.81C254.24 482.97 254.842 482.312 255.598 481.836C256.368 481.36 257.222 481.122 258.16 481.122C258.93 481.122 259.602 481.248 260.176 481.5C260.764 481.752 261.254 482.13 261.646 482.634C262.052 483.124 262.36 483.747 262.57 484.503C262.78 485.259 262.885 486.141 262.885 487.149H254.653V485.973H261.478L260.89 486.435C260.876 485.735 260.813 485.126 260.701 484.608C260.589 484.09 260.421 483.663 260.197 483.327C259.973 482.991 259.693 482.739 259.357 482.571C259.021 482.403 258.622 482.319 258.16 482.319C257.726 482.319 257.32 482.424 256.942 482.634C256.564 482.83 256.228 483.124 255.934 483.516C255.654 483.894 255.43 484.356 255.262 484.902C255.108 485.448 255.031 486.064 255.031 486.75ZM271.197 489.228C271.197 488.934 271.12 488.689 270.966 488.493C270.812 488.297 270.602 488.136 270.336 488.01C270.084 487.87 269.79 487.758 269.454 487.674C269.132 487.576 268.789 487.485 268.425 487.401C267.991 487.289 267.557 487.163 267.123 487.023C266.703 486.883 266.318 486.701 265.968 486.477C265.618 486.239 265.338 485.945 265.128 485.595C264.918 485.231 264.813 484.776 264.813 484.23C264.813 483.614 264.967 483.075 265.275 482.613C265.583 482.137 266.024 481.773 266.598 481.521C267.186 481.255 267.893 481.122 268.719 481.122C269.363 481.122 269.923 481.171 270.399 481.269C270.889 481.367 271.295 481.493 271.617 481.647C271.939 481.787 272.177 481.92 272.331 482.046V484.335H270.525V482.361C270.679 482.361 270.805 482.389 270.903 482.445C271.015 482.487 271.099 482.557 271.155 482.655C271.211 482.739 271.246 482.844 271.26 482.97C271.274 483.096 271.26 483.236 271.218 483.39C271.064 483.152 270.861 482.956 270.609 482.802C270.357 482.634 270.07 482.515 269.748 482.445C269.44 482.361 269.097 482.319 268.719 482.319C267.991 482.319 267.445 482.48 267.081 482.802C266.717 483.11 266.535 483.509 266.535 483.999C266.535 484.307 266.612 484.566 266.766 484.776C266.934 484.986 267.151 485.161 267.417 485.301C267.697 485.427 268.005 485.539 268.341 485.637C268.691 485.735 269.055 485.833 269.433 485.931C269.853 486.029 270.273 486.148 270.693 486.288C271.113 486.428 271.491 486.61 271.827 486.834C272.177 487.058 272.45 487.345 272.646 487.695C272.856 488.045 272.961 488.486 272.961 489.018C272.961 489.62 272.793 490.166 272.457 490.656C272.121 491.132 271.638 491.51 271.008 491.79C270.392 492.07 269.643 492.21 268.761 492.21C268.089 492.21 267.48 492.154 266.934 492.042C266.402 491.944 265.926 491.811 265.506 491.643C265.086 491.461 264.708 491.265 264.372 491.055V488.64H266.22V491.307C266.01 491.181 265.849 491.055 265.737 490.929C265.625 490.803 265.548 490.677 265.506 490.551C265.464 490.425 265.45 490.299 265.464 490.173C265.478 490.033 265.506 489.893 265.548 489.753C265.786 490.047 266.066 490.285 266.388 490.467C266.71 490.649 267.067 490.789 267.459 490.887C267.851 490.971 268.278 491.013 268.74 491.013C269.244 491.013 269.678 490.943 270.042 490.803C270.406 490.663 270.686 490.46 270.882 490.194C271.092 489.928 271.197 489.606 271.197 489.228ZM277.069 479.001C276.705 479.001 276.397 478.889 276.145 478.665C275.907 478.427 275.788 478.112 275.788 477.72C275.788 477.328 275.907 477.02 276.145 476.796C276.397 476.572 276.705 476.46 277.069 476.46C277.433 476.46 277.734 476.572 277.972 476.796C278.224 477.02 278.35 477.328 278.35 477.72C278.35 478.112 278.224 478.427 277.972 478.665C277.734 478.889 277.433 479.001 277.069 479.001ZM278.098 481.332V490.299C278.098 490.607 278.259 490.81 278.581 490.908C278.917 491.006 279.337 491.055 279.841 491.055H279.862V492H274.465V491.055H274.486C274.99 491.055 275.403 491.006 275.725 490.908C276.061 490.81 276.229 490.607 276.229 490.299V483.285C276.229 482.977 276.103 482.767 275.851 482.655C275.599 482.543 275.207 482.438 274.675 482.34L274.444 482.298V481.332H278.098ZM292.175 482.823C291.559 482.767 291.034 482.739 290.6 482.739C290.166 482.739 289.802 482.781 289.508 482.865C289.228 482.949 288.997 483.11 288.815 483.348L288.542 483.033C288.738 482.627 288.962 482.284 289.214 482.004C289.48 481.71 289.767 481.472 290.075 481.29C290.383 481.108 290.712 480.989 291.062 480.933C291.412 480.863 291.783 480.849 292.175 480.891V482.823ZM286.043 488.829C285.231 488.829 284.503 488.675 283.859 488.367C283.229 488.045 282.732 487.597 282.368 487.023C282.004 486.449 281.822 485.777 281.822 485.007C281.822 484.237 282.004 483.565 282.368 482.991C282.746 482.403 283.25 481.948 283.88 481.626C284.524 481.29 285.245 481.122 286.043 481.122C286.855 481.122 287.576 481.29 288.206 481.626C288.85 481.948 289.354 482.403 289.718 482.991C290.096 483.565 290.285 484.237 290.285 485.007C290.285 485.777 290.096 486.449 289.718 487.023C289.354 487.597 288.85 488.045 288.206 488.367C287.576 488.675 286.855 488.829 286.043 488.829ZM286.043 487.611C286.533 487.611 286.953 487.513 287.303 487.317C287.667 487.107 287.947 486.813 288.143 486.435C288.339 486.043 288.437 485.567 288.437 485.007C288.437 484.447 288.339 483.971 288.143 483.579C287.947 483.173 287.667 482.865 287.303 482.655C286.953 482.445 286.533 482.34 286.043 482.34C285.567 482.34 285.147 482.445 284.783 482.655C284.433 482.865 284.16 483.173 283.964 483.579C283.768 483.971 283.67 484.447 283.67 485.007C283.67 485.567 283.768 486.043 283.964 486.435C284.16 486.813 284.433 487.107 284.783 487.317C285.147 487.513 285.567 487.611 286.043 487.611ZM285.728 496.956C284.79 496.956 283.943 496.865 283.187 496.683C282.431 496.515 281.829 496.228 281.381 495.822C280.947 495.416 280.73 494.877 280.73 494.205C280.73 493.869 280.814 493.561 280.982 493.281C281.164 493.001 281.43 492.735 281.78 492.483C282.13 492.245 282.578 492 283.124 491.748L283.901 492.294C283.551 492.462 283.264 492.644 283.04 492.84C282.816 493.036 282.648 493.239 282.536 493.449C282.438 493.659 282.389 493.883 282.389 494.121C282.389 494.457 282.508 494.737 282.746 494.961C282.984 495.199 283.348 495.381 283.838 495.507C284.342 495.633 284.979 495.696 285.749 495.696H286.484C287.198 495.696 287.828 495.605 288.374 495.423C288.934 495.255 289.368 495.017 289.676 494.709C289.998 494.401 290.159 494.051 290.159 493.659C290.159 493.253 290.005 492.959 289.697 492.777C289.403 492.609 288.843 492.525 288.017 492.525H283.313H283.229C282.781 492.287 282.424 492.063 282.158 491.853C281.892 491.629 281.703 491.398 281.591 491.16C281.493 490.922 281.444 490.67 281.444 490.404C281.444 490.068 281.528 489.753 281.696 489.459C281.864 489.165 282.116 488.885 282.452 488.619C282.788 488.339 283.215 488.08 283.733 487.842L284.531 488.409C284.251 488.549 284.006 488.696 283.796 488.85C283.586 489.004 283.425 489.165 283.313 489.333C283.215 489.501 283.166 489.683 283.166 489.879C283.166 490.173 283.313 490.39 283.607 490.53C283.915 490.656 284.349 490.719 284.909 490.719H288.059C288.899 490.719 289.599 490.817 290.159 491.013C290.733 491.195 291.167 491.482 291.461 491.874C291.755 492.252 291.902 492.735 291.902 493.323C291.902 494.149 291.65 494.828 291.146 495.36C290.656 495.906 289.998 496.305 289.172 496.557C288.36 496.823 287.471 496.956 286.505 496.956H285.728ZM293.086 492V491.055H293.128C293.464 491.055 293.758 491.034 294.01 490.992C294.276 490.95 294.479 490.873 294.619 490.761C294.773 490.649 294.85 490.495 294.85 490.299V483.285C294.85 483.075 294.794 482.921 294.682 482.823C294.57 482.711 294.395 482.62 294.157 482.55C293.933 482.48 293.646 482.41 293.296 482.34L293.086 482.298V481.332H296.53V483.558L296.719 483.789V490.845C296.719 490.887 296.803 490.929 296.971 490.971C297.139 490.999 297.342 491.02 297.58 491.034C297.818 491.048 298.035 491.055 298.231 491.055H298.294V492H293.086ZM305.35 492H300.142V491.055H300.184C300.38 491.055 300.597 491.048 300.835 491.034C301.073 491.02 301.276 490.999 301.444 490.971C301.626 490.929 301.717 490.887 301.717 490.845V484.734C301.717 484.202 301.661 483.768 301.549 483.432C301.437 483.096 301.248 482.851 300.982 482.697C300.73 482.529 300.38 482.445 299.932 482.445C299.47 482.445 299.029 482.536 298.609 482.718C298.189 482.9 297.79 483.173 297.412 483.537C297.048 483.887 296.698 484.328 296.362 484.86V483.432C296.74 482.914 297.118 482.487 297.496 482.151C297.888 481.801 298.308 481.542 298.756 481.374C299.204 481.206 299.701 481.122 300.247 481.122C300.919 481.122 301.5 481.241 301.99 481.479C302.494 481.717 302.886 482.088 303.166 482.592C303.446 483.082 303.586 483.719 303.586 484.503V490.299C303.586 490.495 303.656 490.649 303.796 490.761C303.95 490.873 304.153 490.95 304.405 490.992C304.671 491.034 304.972 491.055 305.308 491.055H305.35V492ZM308.7 486.75C308.7 487.422 308.784 488.024 308.952 488.556C309.134 489.088 309.386 489.536 309.708 489.9C310.03 490.264 310.408 490.544 310.842 490.74C311.276 490.922 311.745 491.013 312.249 491.013C312.823 491.013 313.313 490.901 313.719 490.677C314.139 490.453 314.489 490.18 314.769 489.858C315.063 489.522 315.308 489.193 315.504 488.871L316.491 489.753C316.225 490.201 315.896 490.614 315.504 490.992C315.112 491.37 314.643 491.671 314.097 491.895C313.565 492.105 312.935 492.21 312.207 492.21C311.185 492.21 310.261 491.986 309.435 491.538C308.623 491.09 307.979 490.453 307.503 489.627C307.027 488.801 306.789 487.828 306.789 486.708C306.789 485.602 307.013 484.636 307.461 483.81C307.909 482.97 308.511 482.312 309.267 481.836C310.037 481.36 310.891 481.122 311.829 481.122C312.599 481.122 313.271 481.248 313.845 481.5C314.433 481.752 314.923 482.13 315.315 482.634C315.721 483.124 316.029 483.747 316.239 484.503C316.449 485.259 316.554 486.141 316.554 487.149H308.322V485.973H315.147L314.559 486.435C314.545 485.735 314.482 485.126 314.37 484.608C314.258 484.09 314.09 483.663 313.866 483.327C313.642 482.991 313.362 482.739 313.026 482.571C312.69 482.403 312.291 482.319 311.829 482.319C311.395 482.319 310.989 482.424 310.611 482.634C310.233 482.83 309.897 483.124 309.603 483.516C309.323 483.894 309.099 484.356 308.931 484.902C308.777 485.448 308.7 486.064 308.7 486.75ZM325.496 481.185V483.054C325.398 483.012 325.279 482.984 325.139 482.97C325.013 482.942 324.88 482.921 324.74 482.907C324.6 482.893 324.467 482.886 324.341 482.886C323.963 482.886 323.634 482.942 323.354 483.054C323.074 483.152 322.822 483.306 322.598 483.516C322.388 483.726 322.192 483.992 322.01 484.314C321.828 484.636 321.632 485.021 321.422 485.469V484.083C321.632 483.495 321.891 482.984 322.199 482.55C322.521 482.102 322.892 481.752 323.312 481.5C323.746 481.248 324.236 481.122 324.782 481.122C324.922 481.122 325.055 481.129 325.181 481.143C325.321 481.143 325.426 481.157 325.496 481.185ZM318.146 492V491.055H318.188C318.692 491.055 319.105 491.006 319.427 490.908C319.749 490.81 319.91 490.607 319.91 490.299V483.285C319.91 483.075 319.854 482.921 319.742 482.823C319.63 482.711 319.455 482.62 319.217 482.55C318.993 482.48 318.706 482.41 318.356 482.34L318.146 482.298V481.332H321.59V484.419L321.779 484.23V490.32C321.779 490.544 321.877 490.712 322.073 490.824C322.283 490.922 322.521 490.985 322.787 491.013C323.067 491.041 323.305 491.055 323.501 491.055H323.858V492H318.146Z" fill="white"/>
<rect x="216.309" y="462.5" width="130" height="44" rx="22" stroke="black" shape-rendering="crispEdges"/>
</g>
<defs>
<filter id="filter0_d_527_140" x="194.809" y="0" width="113" height="49" filterUnits="userSpaceOnUse" color-interpolation-filters="sRGB">
<feFlood flood-opacity="0" result="BackgroundImageFix"/>
<feColorMatrix in="SourceAlpha" type="matrix" values="0 0 0 0 0 0 0 0 0 0 0 0 0 0 0 0 0 0 127 0" result="hardAlpha"/>
<feOffset dx="4" dy="4"/>
<feComposite in2="hardAlpha" operator="out"/>
<feColorMatrix type="matrix" values="0 0 0 0 0 0 0 0 0 0 0 0 0 0 0 0 0 0 1 0"/>
<feBlend mode="normal" in2="BackgroundImageFix" result="effect1_dropShadow_527_140"/>
<feBlend mode="normal" in="SourceGraphic" in2="effect1_dropShadow_527_140" result="shape"/>
</filter>
<filter id="filter1_d_527_140" x="0" y="287.588" width="149" height="49" filterUnits="userSpaceOnUse" color-interpolation-filters="sRGB">
<feFlood flood-opacity="0" result="BackgroundImageFix"/>
<feColorMatrix in="SourceAlpha" type="matrix" values="0 0 0 0 0 0 0 0 0 0 0 0 0 0 0 0 0 0 127 0" result="hardAlpha"/>
<feOffset dx="4" dy="4"/>
<feComposite in2="hardAlpha" operator="out"/>
<feColorMatrix type="matrix" values="0 0 0 0 0 0 0 0 0 0 0 0 0 0 0 0 0 0 1 0"/>
<feBlend mode="normal" in2="BackgroundImageFix" result="effect1_dropShadow_527_140"/>
<feBlend mode="normal" in="SourceGraphic" in2="effect1_dropShadow_527_140" result="shape"/>
</filter>
<filter id="filter2_d_527_140" x="215.809" y="462" width="135" height="49" filterUnits="userSpaceOnUse" color-interpolation-filters="sRGB">
<feFlood flood-opacity="0" result="BackgroundImageFix"/>
<feColorMatrix in="SourceAlpha" type="matrix" values="0 0 0 0 0 0 0 0 0 0 0 0 0 0 0 0 0 0 127 0" result="hardAlpha"/>
<feOffset dx="4" dy="4"/>
<feComposite in2="hardAlpha" operator="out"/>
<feColorMatrix type="matrix" values="0 0 0 0 0 0 0 0 0 0 0 0 0 0 0 0 0 0 1 0"/>
<feBlend mode="normal" in2="BackgroundImageFix" result="effect1_dropShadow_527_140"/>
<feBlend mode="normal" in="SourceGraphic" in2="effect1_dropShadow_527_140" result="shape"/>
</filter>
</defs>
</svg>
