<svg width="76" height="74" viewBox="0 0 76 74" fill="none" xmlns="http://www.w3.org/2000/svg">
<g id="Group 12">
<g id="Group 11">
<g id="Subtract">
<path fill-rule="evenodd" clip-rule="evenodd" d="M42.482 6.78196C33.4748 3.07349 11.6189 10.8212 7.71134 25.7896C3.80377 40.7579 6.54141 51.8598 19.2353 62.6134C33.7168 71.1902 41.9564 71.0679 56.8539 62.6134C68.7706 51.8902 74.6826 33.6451 67.252 31.8827C64.3254 31.1886 59.6458 31.329 54.9146 31.4709C47.6336 31.6893 40.2304 31.9114 38.9056 29.1013C36.7201 24.4652 36.6974 20.3636 41.0912 17.0472C45.9669 14.1669 51.4893 10.4904 42.482 6.78196ZM55.9267 50.4936C58.67 50.4936 60.894 48.2697 60.894 45.5263C60.894 42.783 58.67 40.5591 55.9267 40.5591C53.1834 40.5591 50.9595 42.783 50.9595 45.5263C50.9595 48.2697 53.1834 50.4936 55.9267 50.4936Z" fill="#D9D9D9"/>
<path d="M7.71134 25.7896L6.74376 25.537L7.71134 25.7896ZM42.482 6.78196L42.8627 5.85726V5.85726L42.482 6.78196ZM19.2353 62.6134L18.589 63.3764L18.6532 63.4309L18.7257 63.4738L19.2353 62.6134ZM56.8539 62.6134L57.3475 63.4831L57.442 63.4294L57.5228 63.3567L56.8539 62.6134ZM67.252 31.8827L67.0212 32.8557L67.252 31.8827ZM54.9146 31.4709L54.9446 32.4705L54.9146 31.4709ZM38.9056 29.1013L38.0011 29.5278L38.9056 29.1013ZM41.0912 17.0472L40.5826 16.1862L40.5339 16.215L40.4887 16.2491L41.0912 17.0472ZM8.67891 26.0422C10.5287 18.9565 16.6747 13.4636 23.6115 10.1861C27.0636 8.55506 30.6618 7.49843 33.9275 7.07413C37.2115 6.64744 40.0717 6.87103 42.1013 7.70665L42.8627 5.85726C40.3887 4.83865 37.1392 4.64003 33.6698 5.0908C30.1821 5.54395 26.3833 6.66444 22.7571 8.37781C15.5372 11.7891 8.80157 17.6543 6.74376 25.537L8.67891 26.0422ZM19.8817 61.8504C13.6385 56.5615 9.91898 51.2524 8.20624 45.4968C6.49211 39.7365 6.75409 33.4154 8.67891 26.0422L6.74376 25.537C4.76102 33.1321 4.43803 39.8461 6.28932 46.0672C8.14198 52.293 12.1382 57.9117 18.589 63.3764L19.8817 61.8504ZM56.3603 61.7437C48.9624 65.9421 43.36 67.9855 37.886 68.0001C32.4184 68.0147 26.9245 66.0051 19.7449 61.753L18.7257 63.4738C26.0277 67.7984 31.8943 70.0161 37.8913 70.0001C43.8817 69.9841 49.8479 67.7392 57.3475 63.4831L56.3603 61.7437ZM67.0212 32.8557C68.3507 33.1711 69.1805 34.194 69.448 36.0617C69.7213 37.97 69.3553 40.5813 68.3594 43.5718C66.3743 49.5327 62.0121 56.6266 56.185 61.87L57.5228 63.3567C63.6125 57.877 68.1646 50.4866 70.257 44.2037C71.2998 41.0721 71.7634 38.1216 71.4278 35.7781C71.0863 33.3941 69.8686 31.4756 67.4828 30.9097L67.0212 32.8557ZM54.9446 32.4705C57.3157 32.3993 59.6443 32.3297 61.744 32.3632C63.8545 32.3968 65.6672 32.5346 67.0212 32.8557L67.4828 30.9097C65.9101 30.5367 63.9198 30.3976 61.7759 30.3634C59.6215 30.3291 57.2446 30.4006 54.8846 30.4714L54.9446 32.4705ZM38.0011 29.5278C38.4932 30.5716 39.4904 31.2135 40.5924 31.6247C41.7075 32.0408 43.0857 32.2801 44.5852 32.4176C47.5852 32.6928 51.324 32.5791 54.9446 32.4705L54.8846 30.4714C51.2241 30.5812 47.6208 30.6877 44.7679 30.426C43.3408 30.2951 42.1648 30.0767 41.2916 29.7509C40.4054 29.4202 39.9804 29.0361 39.8102 28.6749L38.0011 29.5278ZM40.4887 16.2491C38.1187 18.038 36.852 20.1164 36.54 22.4467C36.2336 24.7356 36.8683 27.1248 38.0011 29.5278L39.8102 28.6749C38.7574 26.4418 38.288 24.4621 38.5223 22.7121C38.7511 21.0035 39.6699 19.3729 41.6936 17.8454L40.4887 16.2491ZM42.1013 7.70665C44.3033 8.61326 45.4385 9.45221 45.9458 10.1393C46.1856 10.4642 46.2724 10.7374 46.2881 10.9683C46.3042 11.2034 46.2515 11.469 46.0968 11.7809C45.7707 12.4385 45.0588 13.1692 44.027 13.9535C43.0149 14.7227 41.8 15.467 40.5826 16.1862L41.5998 17.9082C42.8203 17.1872 44.124 16.3919 45.2372 15.5458C46.3306 14.7147 47.3506 13.7545 47.8886 12.6694C48.1661 12.1099 48.3285 11.4912 48.2835 10.8321C48.2382 10.1687 47.9877 9.53774 47.5548 8.95139C46.7166 7.81617 45.1644 6.80489 42.8627 5.85726L42.1013 7.70665ZM59.894 45.5263C59.894 47.7174 58.1178 49.4936 55.9267 49.4936V51.4936C59.2223 51.4936 61.894 48.8219 61.894 45.5263H59.894ZM55.9267 41.5591C58.1178 41.5591 59.894 43.3353 59.894 45.5263H61.894C61.894 42.2307 59.2223 39.5591 55.9267 39.5591V41.5591ZM51.9595 45.5263C51.9595 43.3353 53.7357 41.5591 55.9267 41.5591V39.5591C52.6311 39.5591 49.9595 42.2307 49.9595 45.5263H51.9595ZM55.9267 49.4936C53.7357 49.4936 51.9595 47.7174 51.9595 45.5263H49.9595C49.9595 48.8219 52.6311 51.4936 55.9267 51.4936V49.4936Z" fill="black"/>
</g>
<g id="Ellipse 10">
<mask id="path-3-inside-1_451_115" fill="white">
<ellipse cx="22.8118" cy="23.1406" rx="6.4243" ry="6.4243"/>
</mask>
<ellipse cx="22.8118" cy="23.1406" rx="6.4243" ry="6.4243" fill="#0177B5"/>
<path d="M18.2361 23.1406C18.2361 20.6135 20.2847 18.5649 22.8118 18.5649V40.5649C32.4349 40.5649 40.2361 32.7638 40.2361 23.1406H18.2361ZM22.8118 18.5649C25.3389 18.5649 27.3875 20.6135 27.3875 23.1406H5.38747C5.38747 32.7638 13.1886 40.5649 22.8118 40.5649V18.5649ZM27.3875 23.1406C27.3875 25.6677 25.3389 27.7163 22.8118 27.7163V5.71631C13.1886 5.71631 5.38747 13.5174 5.38747 23.1406H27.3875ZM22.8118 27.7163C20.2847 27.7163 18.2361 25.6677 18.2361 23.1406H40.2361C40.2361 13.5174 32.4349 5.71631 22.8118 5.71631V27.7163Z" fill="black" mask="url(#path-3-inside-1_451_115)"/>
</g>
<g id="Ellipse 11">
<mask id="path-5-inside-2_451_115" fill="white">
<ellipse cx="18.4406" cy="39.168" rx="6.4243" ry="6.4243"/>
</mask>
<ellipse cx="18.4406" cy="39.168" rx="6.4243" ry="6.4243" fill="#FF91E8"/>
<path d="M13.8649 39.168C13.8649 36.6409 15.9135 34.5923 18.4406 34.5923V56.5923C28.0638 56.5923 35.8649 48.7911 35.8649 39.168H13.8649ZM18.4406 34.5923C20.9677 34.5923 23.0163 36.6409 23.0163 39.168H1.01628C1.01628 48.7911 8.81741 56.5923 18.4406 56.5923V34.5923ZM23.0163 39.168C23.0163 41.695 20.9677 43.7437 18.4406 43.7437V21.7437C8.81741 21.7437 1.01628 29.5448 1.01628 39.168H23.0163ZM18.4406 43.7437C15.9135 43.7437 13.8649 41.695 13.8649 39.168H35.8649C35.8649 29.5448 28.0638 21.7437 18.4406 21.7437V43.7437Z" fill="black" mask="url(#path-5-inside-2_451_115)"/>
</g>
<g id="Ellipse 12">
<mask id="path-7-inside-3_451_115" fill="white">
<ellipse cx="27.8452" cy="53.0762" rx="6.4243" ry="6.4243"/>
</mask>
<ellipse cx="27.8452" cy="53.0762" rx="6.4243" ry="6.4243" fill="#4AC440"/>
<path d="M23.2695 53.0762C23.2695 50.5491 25.3181 48.5005 27.8452 48.5005V70.5005C37.4684 70.5005 45.2695 62.6993 45.2695 53.0762H23.2695ZM27.8452 48.5005C30.3723 48.5005 32.4209 50.5491 32.4209 53.0762H10.4209C10.4209 62.6993 18.2221 70.5005 27.8452 70.5005V48.5005ZM32.4209 53.0762C32.4209 55.6032 30.3723 57.6519 27.8452 57.6519V35.6519C18.2221 35.6519 10.4209 43.453 10.4209 53.0762H32.4209ZM27.8452 57.6519C25.3181 57.6519 23.2695 55.6032 23.2695 53.0762H45.2695C45.2695 43.453 37.4684 35.6519 27.8452 35.6519V57.6519Z" fill="black" mask="url(#path-7-inside-3_451_115)"/>
</g>
<g id="Ellipse 13">
<mask id="path-9-inside-4_451_115" fill="white">
<ellipse cx="43.7404" cy="56.9175" rx="6.4243" ry="6.4243"/>
</mask>
<ellipse cx="43.7404" cy="56.9175" rx="6.4243" ry="6.4243" fill="#F7CB45"/>
<path d="M39.1647 56.9175C39.1647 54.3904 41.2133 52.3418 43.7404 52.3418V74.3418C53.3636 74.3418 61.1647 66.5406 61.1647 56.9175H39.1647ZM43.7404 52.3418C46.2675 52.3418 48.3161 54.3904 48.3161 56.9175H26.3161C26.3161 66.5406 34.1172 74.3418 43.7404 74.3418V52.3418ZM48.3161 56.9175C48.3161 59.4446 46.2675 61.4932 43.7404 61.4932V39.4932C34.1172 39.4932 26.3161 47.2943 26.3161 56.9175H48.3161ZM43.7404 61.4932C41.2133 61.4932 39.1647 59.4446 39.1647 56.9175H61.1647C61.1647 47.2943 53.3636 39.4932 43.7404 39.4932V61.4932Z" fill="black" mask="url(#path-9-inside-4_451_115)"/>
</g>
<path id="Vector 13" d="M51.7827 18.9732C56.5446 12.3497 58.8219 9.32114 61.0264 4C70.7586 17.3639 74.0818 23.9601 65.9936 29.8297H55.5956C51.7093 27.0355 50.365 25.0598 50.8178 21.3058C50.9199 20.4587 51.2847 19.666 51.7827 18.9732Z" fill="#322020" stroke="black" stroke-width="3" stroke-linecap="round"/>
<path id="Vector 14" d="M57.9136 68.508L55.3969 30.8232H66.7884L63.6756 68.508H57.9136Z" fill="#FF9191" stroke="black" stroke-width="3" stroke-linecap="round"/>
<path id="Vector 15" d="M56.5228 41.6849L55.5956 30.8232H66.656L65.7287 41.6849H56.5228Z" fill="#D9D9D9" stroke="black" stroke-width="3" stroke-linecap="round"/>
</g>
</g>
</svg>
