<svg width="68" height="71" viewBox="0 0 68 71" fill="none" xmlns="http://www.w3.org/2000/svg">
<path fill-rule="evenodd" clip-rule="evenodd" d="M37.482 6.78196C28.4748 3.07349 6.6189 10.8212 2.71134 25.7896C-1.19623 40.7579 1.54141 51.8598 14.2353 62.6134C28.7168 71.1902 36.9564 71.0679 51.8539 62.6134C63.7706 51.8902 69.6826 33.6451 62.252 31.8827C59.3254 31.1886 54.6458 31.329 49.9146 31.4709C42.6336 31.6893 35.2304 31.9114 33.9056 29.1013C31.7201 24.4652 31.6974 20.3636 36.0912 17.0472C40.9669 14.1669 46.4893 10.4904 37.482 6.78196ZM50.9267 50.4936C53.67 50.4936 55.894 48.2697 55.894 45.5263C55.894 42.783 53.67 40.5591 50.9267 40.5591C48.1834 40.5591 45.9595 42.783 45.9595 45.5263C45.9595 48.2697 48.1834 50.4936 50.9267 50.4936Z" fill="#D9D9D9"/>
<path d="M2.71134 25.7896L1.74376 25.537L2.71134 25.7896ZM37.482 6.78196L37.8627 5.85726V5.85726L37.482 6.78196ZM14.2353 62.6134L13.589 63.3764L13.6532 63.4309L13.7257 63.4738L14.2353 62.6134ZM51.8539 62.6134L52.3475 63.4831L52.442 63.4294L52.5228 63.3567L51.8539 62.6134ZM62.252 31.8827L62.0212 32.8557L62.252 31.8827ZM49.9146 31.4709L49.9446 32.4705L49.9146 31.4709ZM33.9056 29.1013L33.0011 29.5278L33.9056 29.1013ZM36.0912 17.0472L35.5826 16.1862L35.5339 16.215L35.4887 16.2491L36.0912 17.0472ZM3.67891 26.0422C5.52867 18.9565 11.6747 13.4636 18.6115 10.1861C22.0636 8.55506 25.6618 7.49843 28.9275 7.07413C32.2115 6.64744 35.0717 6.87103 37.1013 7.70665L37.8627 5.85726C35.3887 4.83865 32.1392 4.64003 28.6698 5.0908C25.1821 5.54395 21.3833 6.66444 17.7571 8.37781C10.5372 11.7891 3.80157 17.6543 1.74376 25.537L3.67891 26.0422ZM14.8817 61.8504C8.63855 56.5615 4.91898 51.2524 3.20624 45.4968C1.49211 39.7365 1.75409 33.4154 3.67891 26.0422L1.74376 25.537C-0.238976 33.1321 -0.561966 39.8461 1.28932 46.0672C3.14198 52.293 7.1382 57.9117 13.589 63.3764L14.8817 61.8504ZM51.3603 61.7437C43.9624 65.9421 38.36 67.9855 32.886 68.0001C27.4184 68.0147 21.9245 66.0051 14.7449 61.753L13.7257 63.4738C21.0277 67.7984 26.8943 70.0161 32.8913 70.0001C38.8817 69.9841 44.8479 67.7392 52.3475 63.4831L51.3603 61.7437ZM62.0212 32.8557C63.3507 33.1711 64.1805 34.194 64.448 36.0617C64.7213 37.97 64.3553 40.5813 63.3594 43.5718C61.3743 49.5327 57.0121 56.6266 51.185 61.87L52.5228 63.3567C58.6125 57.877 63.1646 50.4866 65.257 44.2037C66.2998 41.0721 66.7634 38.1216 66.4278 35.7781C66.0863 33.3941 64.8686 31.4756 62.4828 30.9097L62.0212 32.8557ZM49.9446 32.4705C52.3157 32.3993 54.6443 32.3297 56.744 32.3632C58.8545 32.3968 60.6672 32.5346 62.0212 32.8557L62.4828 30.9097C60.9101 30.5367 58.9198 30.3976 56.7759 30.3634C54.6215 30.3291 52.2446 30.4006 49.8846 30.4714L49.9446 32.4705ZM33.0011 29.5278C33.4932 30.5716 34.4904 31.2135 35.5924 31.6247C36.7075 32.0408 38.0857 32.2801 39.5852 32.4176C42.5852 32.6928 46.324 32.5791 49.9446 32.4705L49.8846 30.4714C46.2241 30.5812 42.6208 30.6877 39.7679 30.426C38.3408 30.2951 37.1648 30.0767 36.2916 29.7509C35.4054 29.4202 34.9804 29.0361 34.8102 28.6749L33.0011 29.5278ZM35.4887 16.2491C33.1187 18.038 31.852 20.1164 31.54 22.4467C31.2336 24.7356 31.8683 27.1248 33.0011 29.5278L34.8102 28.6749C33.7574 26.4418 33.288 24.4621 33.5223 22.7121C33.7511 21.0035 34.6699 19.3729 36.6936 17.8454L35.4887 16.2491ZM37.1013 7.70665C39.3033 8.61326 40.4385 9.45221 40.9458 10.1393C41.1856 10.4642 41.2724 10.7374 41.2881 10.9683C41.3042 11.2034 41.2515 11.469 41.0968 11.7809C40.7707 12.4385 40.0588 13.1692 39.027 13.9535C38.0149 14.7227 36.8 15.467 35.5826 16.1862L36.5998 17.9082C37.8203 17.1872 39.124 16.3919 40.2372 15.5458C41.3306 14.7147 42.3506 13.7545 42.8886 12.6694C43.1661 12.1099 43.3285 11.4912 43.2835 10.8321C43.2382 10.1687 42.9877 9.53774 42.5548 8.95139C41.7166 7.81617 40.1644 6.80489 37.8627 5.85726L37.1013 7.70665ZM54.894 45.5263C54.894 47.7174 53.1178 49.4936 50.9267 49.4936V51.4936C54.2223 51.4936 56.894 48.8219 56.894 45.5263H54.894ZM50.9267 41.5591C53.1178 41.5591 54.894 43.3353 54.894 45.5263H56.894C56.894 42.2307 54.2223 39.5591 50.9267 39.5591V41.5591ZM46.9595 45.5263C46.9595 43.3353 48.7357 41.5591 50.9267 41.5591V39.5591C47.6311 39.5591 44.9595 42.2307 44.9595 45.5263H46.9595ZM50.9267 49.4936C48.7357 49.4936 46.9595 47.7174 46.9595 45.5263H44.9595C44.9595 48.8219 47.6311 51.4936 50.9267 51.4936V49.4936Z" fill="black"/>
<mask id="path-3-inside-1_451_117" fill="white">
<ellipse cx="17.8118" cy="23.1406" rx="6.4243" ry="6.4243"/>
</mask>
<ellipse cx="17.8118" cy="23.1406" rx="6.4243" ry="6.4243" fill="#0177B5"/>
<path d="M13.2361 23.1406C13.2361 20.6135 15.2847 18.5649 17.8118 18.5649V40.5649C27.4349 40.5649 35.2361 32.7638 35.2361 23.1406H13.2361ZM17.8118 18.5649C20.3389 18.5649 22.3875 20.6135 22.3875 23.1406H0.387466C0.387466 32.7638 8.18859 40.5649 17.8118 40.5649V18.5649ZM22.3875 23.1406C22.3875 25.6677 20.3389 27.7163 17.8118 27.7163V5.71631C8.18859 5.71631 0.387466 13.5174 0.387466 23.1406H22.3875ZM17.8118 27.7163C15.2847 27.7163 13.2361 25.6677 13.2361 23.1406H35.2361C35.2361 13.5174 27.4349 5.71631 17.8118 5.71631V27.7163Z" fill="black" mask="url(#path-3-inside-1_451_117)"/>
<mask id="path-5-inside-2_451_117" fill="white">
<ellipse cx="13.4406" cy="39.168" rx="6.4243" ry="6.4243"/>
</mask>
<ellipse cx="13.4406" cy="39.168" rx="6.4243" ry="6.4243" fill="#FF91E8"/>
<path d="M8.86488 39.168C8.86488 36.6409 10.9135 34.5923 13.4406 34.5923V56.5923C23.0638 56.5923 30.8649 48.7911 30.8649 39.168H8.86488ZM13.4406 34.5923C15.9677 34.5923 18.0163 36.6409 18.0163 39.168H-3.98372C-3.98372 48.7911 3.81741 56.5923 13.4406 56.5923V34.5923ZM18.0163 39.168C18.0163 41.695 15.9677 43.7437 13.4406 43.7437V21.7437C3.81741 21.7437 -3.98372 29.5448 -3.98372 39.168H18.0163ZM13.4406 43.7437C10.9135 43.7437 8.86488 41.695 8.86488 39.168H30.8649C30.8649 29.5448 23.0638 21.7437 13.4406 21.7437V43.7437Z" fill="black" mask="url(#path-5-inside-2_451_117)"/>
<mask id="path-7-inside-3_451_117" fill="white">
<ellipse cx="22.8452" cy="53.0762" rx="6.4243" ry="6.4243"/>
</mask>
<ellipse cx="22.8452" cy="53.0762" rx="6.4243" ry="6.4243" fill="#4AC440"/>
<path d="M18.2695 53.0762C18.2695 50.5491 20.3181 48.5005 22.8452 48.5005V70.5005C32.4684 70.5005 40.2695 62.6993 40.2695 53.0762H18.2695ZM22.8452 48.5005C25.3723 48.5005 27.4209 50.5491 27.4209 53.0762H5.42093C5.42093 62.6993 13.2221 70.5005 22.8452 70.5005V48.5005ZM27.4209 53.0762C27.4209 55.6032 25.3723 57.6519 22.8452 57.6519V35.6519C13.2221 35.6519 5.42093 43.453 5.42093 53.0762H27.4209ZM22.8452 57.6519C20.3181 57.6519 18.2695 55.6032 18.2695 53.0762H40.2695C40.2695 43.453 32.4684 35.6519 22.8452 35.6519V57.6519Z" fill="black" mask="url(#path-7-inside-3_451_117)"/>
<mask id="path-9-inside-4_451_117" fill="white">
<ellipse cx="38.7404" cy="56.9175" rx="6.4243" ry="6.4243"/>
</mask>
<ellipse cx="38.7404" cy="56.9175" rx="6.4243" ry="6.4243" fill="#F7CB45"/>
<path d="M34.1647 56.9175C34.1647 54.3904 36.2133 52.3418 38.7404 52.3418V74.3418C48.3636 74.3418 56.1647 66.5406 56.1647 56.9175H34.1647ZM38.7404 52.3418C41.2675 52.3418 43.3161 54.3904 43.3161 56.9175H21.3161C21.3161 66.5406 29.1172 74.3418 38.7404 74.3418V52.3418ZM43.3161 56.9175C43.3161 59.4446 41.2675 61.4932 38.7404 61.4932V39.4932C29.1172 39.4932 21.3161 47.2943 21.3161 56.9175H43.3161ZM38.7404 61.4932C36.2133 61.4932 34.1647 59.4446 34.1647 56.9175H56.1647C56.1647 47.2943 48.3636 39.4932 38.7404 39.4932V61.4932Z" fill="black" mask="url(#path-9-inside-4_451_117)"/>
<path d="M46.7827 18.9732C51.5446 12.3497 53.8219 9.32114 56.0264 4C65.7586 17.3639 69.0818 23.9601 60.9936 29.8297H50.5956C46.7093 27.0355 45.365 25.0598 45.8178 21.3058C45.9199 20.4587 46.2847 19.666 46.7827 18.9732Z" fill="#322020" stroke="black" stroke-width="3" stroke-linecap="round"/>
<path d="M52.9136 68.508L50.3969 30.8232H61.7884L58.6756 68.508H52.9136Z" fill="#FF9191" stroke="black" stroke-width="3" stroke-linecap="round"/>
<path d="M51.5228 41.6849L50.5956 30.8232H61.656L60.7287 41.6849H51.5228Z" fill="#D9D9D9" stroke="black" stroke-width="3" stroke-linecap="round"/>
</svg>
