<svg width="67" height="66" viewBox="0 0 67 66" fill="none" xmlns="http://www.w3.org/2000/svg">
<path d="M33.2632 6.8418L15.2105 33.7365C19.8595 41.0055 21.9544 45.1456 22.9474 52.8944H43.9474C45.1355 44.3022 47.096 40.2118 52.0526 33.7365L33.2632 6.8418Z" fill="#FF9191" stroke="black" stroke-width="3"/>
<path d="M19.2632 63.5792V54.3687H46.5263V63.5792H19.2632Z" fill="#D9D9D9" stroke="black" stroke-width="3"/>
<path d="M4.52632 32.2635C6.66862 12.0541 13.3707 5.63632 33.8158 2.42139M62.7368 32.2635C60.4588 12.0286 54.0539 5.67701 33.8158 2.42139M1.57895 2.42139H33.8158M66.0526 2.42139H33.8158" stroke="black" stroke-width="3"/>
<circle cx="2.23077" cy="2.30765" r="1.65385" fill="#D9D9D9" stroke="black"/>
<circle cx="4.38462" cy="32.4615" r="1.65385" fill="#D9D9D9" stroke="black"/>
<circle cx="33.4615" cy="2.30765" r="1.65385" fill="#D9D9D9" stroke="black"/>
<circle cx="64.6923" cy="2.30765" r="1.65385" fill="#D9D9D9" stroke="black"/>
<circle cx="62.5385" cy="32.4615" r="1.65385" fill="#D9D9D9" stroke="black"/>
<path d="M33.6316 8.31592V33.3686" stroke="black" stroke-width="3"/>
<circle cx="33.6316" cy="33.3687" r="1.71053" fill="#D9D9D9" stroke="black"/>
</svg>
