<svg width="114" height="49" viewBox="0 0 114 49" fill="none" xmlns="http://www.w3.org/2000/svg">
<g filter="url(#filter0_d_430_65)">
<rect x="0.809326" width="109" height="45" rx="22.5" fill="#FCE8E8" shape-rendering="crispEdges"/>
<path d="M24.7153 23.7H31.0363L31.0573 24.876H24.5893L24.7153 23.7ZM27.5713 15.888L27.9073 16.518L23.7493 28.635C23.7493 28.705 23.8403 28.775 24.0223 28.845C24.2043 28.901 24.4283 28.943 24.6943 28.971C24.9743 28.999 25.2473 29.013 25.5133 29.013H25.8283V30H20.9773V29.013H21.0823C21.4743 29.013 21.7823 28.964 22.0063 28.866C22.2303 28.754 22.4123 28.502 22.5523 28.11L27.0463 15.09H29.1883L33.8503 28.425C33.9483 28.691 34.1093 28.859 34.3333 28.929C34.5713 28.985 34.8653 29.013 35.2153 29.013H35.3203V30H29.8603V29.013H30.2173C30.4833 29.013 30.7563 29.006 31.0363 28.992C31.3163 28.978 31.5473 28.957 31.7293 28.929C31.9253 28.887 32.0233 28.845 32.0233 28.803L27.5713 15.888ZM43.4754 23.532V24.582C42.7754 24.652 42.1524 24.743 41.6064 24.855C41.0604 24.967 40.5844 25.1 40.1784 25.254C39.7864 25.408 39.4644 25.59 39.2124 25.8C38.9604 25.996 38.7714 26.227 38.6454 26.493C38.5194 26.759 38.4564 27.053 38.4564 27.375C38.4564 27.711 38.5334 28.005 38.6874 28.257C38.8414 28.509 39.0584 28.705 39.3384 28.845C39.6184 28.985 39.9404 29.055 40.3044 29.055C40.7944 29.055 41.2284 28.936 41.6064 28.698C41.9984 28.46 42.3414 28.124 42.6354 27.69C42.9434 27.256 43.2094 26.745 43.4334 26.157V27.648C43.2234 28.166 42.9434 28.621 42.5934 29.013C42.2434 29.391 41.8374 29.685 41.3754 29.895C40.9134 30.105 40.3884 30.21 39.8004 30.21C39.1984 30.21 38.6454 30.098 38.1414 29.874C37.6514 29.65 37.2524 29.328 36.9444 28.908C36.6504 28.474 36.5034 27.97 36.5034 27.396C36.5034 26.822 36.6504 26.325 36.9444 25.905C37.2384 25.471 37.6794 25.1 38.2674 24.792C38.8554 24.484 39.5834 24.232 40.4514 24.036C41.3194 23.826 42.3274 23.658 43.4754 23.532ZM43.1184 30V27.753L42.9084 27.69V22.65C42.9084 22.062 42.8244 21.6 42.6564 21.264C42.5024 20.914 42.2714 20.669 41.9634 20.529C41.6554 20.389 41.2774 20.319 40.8294 20.319C40.1434 20.319 39.5764 20.459 39.1284 20.739C38.6944 21.019 38.3444 21.348 38.0784 21.726C38.0504 21.558 38.0574 21.404 38.0994 21.264C38.1414 21.124 38.2044 20.998 38.2884 20.886C38.3724 20.774 38.4704 20.676 38.5824 20.592C38.7084 20.508 38.8414 20.438 38.9814 20.382V22.545H37.1544V20.382C37.3644 20.214 37.6444 20.032 37.9944 19.836C38.3584 19.64 38.7924 19.472 39.2964 19.332C39.8004 19.192 40.3534 19.122 40.9554 19.122C41.4454 19.122 41.9144 19.178 42.3624 19.29C42.8104 19.402 43.2164 19.591 43.5804 19.857C43.9444 20.109 44.2314 20.452 44.4414 20.886C44.6514 21.306 44.7564 21.831 44.7564 22.461V28.299C44.7564 28.495 44.8334 28.649 44.9874 28.761C45.1414 28.873 45.3444 28.95 45.5964 28.992C45.8624 29.034 46.1634 29.055 46.4994 29.055V30H43.1184ZM54.2902 27.228C54.2902 26.934 54.2132 26.689 54.0592 26.493C53.9052 26.297 53.6952 26.136 53.4292 26.01C53.1772 25.87 52.8832 25.758 52.5472 25.674C52.2252 25.576 51.8822 25.485 51.5182 25.401C51.0842 25.289 50.6502 25.163 50.2162 25.023C49.7962 24.883 49.4112 24.701 49.0612 24.477C48.7112 24.239 48.4312 23.945 48.2212 23.595C48.0112 23.231 47.9062 22.776 47.9062 22.23C47.9062 21.614 48.0602 21.075 48.3682 20.613C48.6762 20.137 49.1172 19.773 49.6912 19.521C50.2792 19.255 50.9862 19.122 51.8122 19.122C52.4562 19.122 53.0162 19.171 53.4922 19.269C53.9822 19.367 54.3882 19.493 54.7102 19.647C55.0322 19.787 55.2702 19.92 55.4242 20.046V22.335H53.6182V20.361C53.7722 20.361 53.8982 20.389 53.9962 20.445C54.1082 20.487 54.1922 20.557 54.2482 20.655C54.3042 20.739 54.3392 20.844 54.3532 20.97C54.3672 21.096 54.3532 21.236 54.3112 21.39C54.1572 21.152 53.9542 20.956 53.7022 20.802C53.4502 20.634 53.1632 20.515 52.8412 20.445C52.5332 20.361 52.1902 20.319 51.8122 20.319C51.0842 20.319 50.5382 20.48 50.1742 20.802C49.8102 21.11 49.6282 21.509 49.6282 21.999C49.6282 22.307 49.7052 22.566 49.8592 22.776C50.0272 22.986 50.2442 23.161 50.5102 23.301C50.7902 23.427 51.0982 23.539 51.4342 23.637C51.7842 23.735 52.1482 23.833 52.5262 23.931C52.9462 24.029 53.3662 24.148 53.7862 24.288C54.2062 24.428 54.5842 24.61 54.9202 24.834C55.2702 25.058 55.5432 25.345 55.7392 25.695C55.9492 26.045 56.0542 26.486 56.0542 27.018C56.0542 27.62 55.8862 28.166 55.5502 28.656C55.2142 29.132 54.7312 29.51 54.1012 29.79C53.4852 30.07 52.7362 30.21 51.8542 30.21C51.1822 30.21 50.5732 30.154 50.0272 30.042C49.4952 29.944 49.0192 29.811 48.5992 29.643C48.1792 29.461 47.8012 29.265 47.4652 29.055V26.64H49.3132V29.307C49.1032 29.181 48.9422 29.055 48.8302 28.929C48.7182 28.803 48.6412 28.677 48.5992 28.551C48.5572 28.425 48.5432 28.299 48.5572 28.173C48.5712 28.033 48.5992 27.893 48.6412 27.753C48.8792 28.047 49.1592 28.285 49.4812 28.467C49.8032 28.649 50.1602 28.789 50.5522 28.887C50.9442 28.971 51.3712 29.013 51.8332 29.013C52.3372 29.013 52.7712 28.943 53.1352 28.803C53.4992 28.663 53.7792 28.46 53.9752 28.194C54.1852 27.928 54.2902 27.606 54.2902 27.228ZM56.907 20.529V19.437H57.012C57.432 19.437 57.789 19.409 58.083 19.353C58.391 19.297 58.622 19.192 58.776 19.038C58.93 18.884 59.007 18.667 59.007 18.387L60.372 19.332H63.9V20.529H56.907ZM60.729 26.346C60.729 26.962 60.806 27.466 60.96 27.858C61.128 28.236 61.359 28.516 61.653 28.698C61.947 28.866 62.29 28.95 62.682 28.95C62.976 28.95 63.249 28.922 63.501 28.866C63.753 28.81 63.97 28.754 64.152 28.698V29.895C64.026 29.951 63.872 30 63.69 30.042C63.522 30.098 63.34 30.14 63.144 30.168C62.948 30.196 62.738 30.21 62.514 30.21C61.898 30.21 61.31 30.098 60.75 29.874C60.19 29.65 59.735 29.258 59.385 28.698C59.035 28.138 58.86 27.361 58.86 26.367V19.668L59.007 19.521V16.392H60.729V26.346ZM69.025 14.565V28.845C69.025 28.887 69.109 28.929 69.277 28.971C69.445 28.999 69.648 29.02 69.886 29.034C70.124 29.048 70.341 29.055 70.537 29.055H70.6V30H65.371V29.055H65.413C65.749 29.055 66.043 29.034 66.295 28.992C66.561 28.95 66.771 28.873 66.925 28.761C67.079 28.649 67.156 28.495 67.156 28.299V16.518C67.156 16.308 67.1 16.147 66.988 16.035C66.876 15.923 66.708 15.832 66.484 15.762C66.26 15.692 65.966 15.629 65.602 15.573L65.371 15.531V14.565H69.025ZM77.656 30H72.448V29.055H72.49C72.686 29.055 72.903 29.048 73.141 29.034C73.379 29.02 73.582 28.999 73.75 28.971C73.932 28.929 74.023 28.887 74.023 28.845V22.734C74.023 22.202 73.967 21.768 73.855 21.432C73.743 21.096 73.554 20.851 73.288 20.697C73.036 20.529 72.686 20.445 72.238 20.445C71.762 20.445 71.314 20.536 70.894 20.718C70.474 20.9 70.082 21.173 69.718 21.537C69.354 21.887 69.004 22.321 68.668 22.839V21.411C69.046 20.893 69.424 20.466 69.802 20.13C70.194 19.794 70.607 19.542 71.041 19.374C71.489 19.206 71.986 19.122 72.532 19.122C73.204 19.122 73.792 19.241 74.296 19.479C74.8 19.717 75.192 20.088 75.472 20.592C75.752 21.082 75.892 21.719 75.892 22.503V28.299C75.892 28.607 76.053 28.81 76.375 28.908C76.711 29.006 77.124 29.055 77.614 29.055H77.656V30ZM86.2342 23.532V24.582C85.5342 24.652 84.9112 24.743 84.3652 24.855C83.8192 24.967 83.3432 25.1 82.9372 25.254C82.5452 25.408 82.2232 25.59 81.9712 25.8C81.7192 25.996 81.5302 26.227 81.4042 26.493C81.2782 26.759 81.2152 27.053 81.2152 27.375C81.2152 27.711 81.2922 28.005 81.4462 28.257C81.6002 28.509 81.8172 28.705 82.0972 28.845C82.3772 28.985 82.6992 29.055 83.0632 29.055C83.5532 29.055 83.9872 28.936 84.3652 28.698C84.7572 28.46 85.1002 28.124 85.3942 27.69C85.7022 27.256 85.9682 26.745 86.1922 26.157V27.648C85.9822 28.166 85.7022 28.621 85.3522 29.013C85.0022 29.391 84.5962 29.685 84.1342 29.895C83.6722 30.105 83.1472 30.21 82.5592 30.21C81.9572 30.21 81.4042 30.098 80.9002 29.874C80.4102 29.65 80.0112 29.328 79.7032 28.908C79.4092 28.474 79.2622 27.97 79.2622 27.396C79.2622 26.822 79.4092 26.325 79.7032 25.905C79.9972 25.471 80.4382 25.1 81.0262 24.792C81.6142 24.484 82.3422 24.232 83.2102 24.036C84.0782 23.826 85.0862 23.658 86.2342 23.532ZM85.8772 30V27.753L85.6672 27.69V22.65C85.6672 22.062 85.5832 21.6 85.4152 21.264C85.2612 20.914 85.0302 20.669 84.7222 20.529C84.4142 20.389 84.0362 20.319 83.5882 20.319C82.9022 20.319 82.3352 20.459 81.8872 20.739C81.4532 21.019 81.1032 21.348 80.8372 21.726C80.8092 21.558 80.8162 21.404 80.8582 21.264C80.9002 21.124 80.9632 20.998 81.0472 20.886C81.1312 20.774 81.2292 20.676 81.3412 20.592C81.4672 20.508 81.6002 20.438 81.7402 20.382V22.545H79.9132V20.382C80.1232 20.214 80.4032 20.032 80.7532 19.836C81.1172 19.64 81.5512 19.472 82.0552 19.332C82.5592 19.192 83.1122 19.122 83.7142 19.122C84.2042 19.122 84.6732 19.178 85.1212 19.29C85.5692 19.402 85.9752 19.591 86.3392 19.857C86.7032 20.109 86.9902 20.452 87.2002 20.886C87.4102 21.306 87.5152 21.831 87.5152 22.461V28.299C87.5152 28.495 87.5922 28.649 87.7462 28.761C87.9002 28.873 88.1032 28.95 88.3552 28.992C88.6212 29.034 88.9222 29.055 89.2582 29.055V30H85.8772Z" fill="black"/>
<rect x="1.30933" y="0.5" width="108" height="44" rx="22" stroke="black" shape-rendering="crispEdges"/>
</g>
<defs>
<filter id="filter0_d_430_65" x="0.809326" y="0" width="113" height="49" filterUnits="userSpaceOnUse" color-interpolation-filters="sRGB">
<feFlood flood-opacity="0" result="BackgroundImageFix"/>
<feColorMatrix in="SourceAlpha" type="matrix" values="0 0 0 0 0 0 0 0 0 0 0 0 0 0 0 0 0 0 127 0" result="hardAlpha"/>
<feOffset dx="4" dy="4"/>
<feComposite in2="hardAlpha" operator="out"/>
<feColorMatrix type="matrix" values="0 0 0 0 0 0 0 0 0 0 0 0 0 0 0 0 0 0 1 0"/>
<feBlend mode="normal" in2="BackgroundImageFix" result="effect1_dropShadow_430_65"/>
<feBlend mode="normal" in="SourceGraphic" in2="effect1_dropShadow_430_65" result="shape"/>
</filter>
</defs>
</svg>
