<svg width="136" height="49" viewBox="0 0 136 49" fill="none" xmlns="http://www.w3.org/2000/svg">
<g filter="url(#filter0_d_430_71)">
<rect x="0.809326" width="131" height="45" rx="22.5" fill="#5E992B" shape-rendering="crispEdges"/>
<path d="M21.7543 16.077V15.09H28.1803C29.3563 15.09 30.4203 15.265 31.3723 15.615C32.3383 15.951 33.1713 16.441 33.8713 17.085C34.5713 17.729 35.1103 18.513 35.4883 19.437C35.8663 20.347 36.0553 21.369 36.0553 22.503C36.0553 23.637 35.8663 24.666 35.4883 25.59C35.1103 26.5 34.5713 27.291 33.8713 27.963C33.1713 28.621 32.3383 29.125 31.3723 29.475C30.4203 29.825 29.3563 30 28.1803 30H21.7543V29.013H22.0063C22.5243 29.013 22.9513 28.964 23.2873 28.866C23.6233 28.768 23.7913 28.565 23.7913 28.257V16.833C23.7913 16.553 23.6233 16.357 23.2873 16.245C22.9513 16.133 22.5243 16.077 22.0063 16.077H21.7543ZM28.1803 16.329H25.7233V28.761H28.1803C29.0763 28.761 29.8743 28.621 30.5743 28.341C31.2883 28.061 31.8973 27.655 32.4013 27.123C32.9053 26.577 33.2903 25.919 33.5563 25.149C33.8223 24.365 33.9553 23.483 33.9553 22.503C33.9553 21.523 33.8223 20.648 33.5563 19.878C33.2903 19.108 32.9053 18.464 32.4013 17.946C31.8973 17.414 31.2883 17.015 30.5743 16.749C29.8743 16.469 29.0763 16.329 28.1803 16.329ZM40.0311 24.75C40.0311 25.422 40.1151 26.024 40.2831 26.556C40.4651 27.088 40.7171 27.536 41.0391 27.9C41.3611 28.264 41.7391 28.544 42.1731 28.74C42.6071 28.922 43.0761 29.013 43.5801 29.013C44.1541 29.013 44.6441 28.901 45.0501 28.677C45.4701 28.453 45.8201 28.18 46.1001 27.858C46.3941 27.522 46.6391 27.193 46.8351 26.871L47.8221 27.753C47.5561 28.201 47.2271 28.614 46.8351 28.992C46.4431 29.37 45.9741 29.671 45.4281 29.895C44.8961 30.105 44.2661 30.21 43.5381 30.21C42.5161 30.21 41.5921 29.986 40.7661 29.538C39.9541 29.09 39.3101 28.453 38.8341 27.627C38.3581 26.801 38.1201 25.828 38.1201 24.708C38.1201 23.602 38.3441 22.636 38.7921 21.81C39.2401 20.97 39.8421 20.312 40.5981 19.836C41.3681 19.36 42.2221 19.122 43.1601 19.122C43.9301 19.122 44.6021 19.248 45.1761 19.5C45.7641 19.752 46.2541 20.13 46.6461 20.634C47.0521 21.124 47.3601 21.747 47.5701 22.503C47.7801 23.259 47.8851 24.141 47.8851 25.149H39.6531V23.973H46.4781L45.8901 24.435C45.8761 23.735 45.8131 23.126 45.7011 22.608C45.5891 22.09 45.4211 21.663 45.1971 21.327C44.9731 20.991 44.6931 20.739 44.3571 20.571C44.0211 20.403 43.6221 20.319 43.1601 20.319C42.7261 20.319 42.3201 20.424 41.9421 20.634C41.5641 20.83 41.2281 21.124 40.9341 21.516C40.6541 21.894 40.4301 22.356 40.2621 22.902C40.1081 23.448 40.0311 24.064 40.0311 24.75ZM56.1974 27.228C56.1974 26.934 56.1204 26.689 55.9664 26.493C55.8124 26.297 55.6024 26.136 55.3364 26.01C55.0844 25.87 54.7904 25.758 54.4544 25.674C54.1324 25.576 53.7894 25.485 53.4254 25.401C52.9914 25.289 52.5574 25.163 52.1234 25.023C51.7034 24.883 51.3184 24.701 50.9684 24.477C50.6184 24.239 50.3384 23.945 50.1284 23.595C49.9184 23.231 49.8134 22.776 49.8134 22.23C49.8134 21.614 49.9674 21.075 50.2754 20.613C50.5834 20.137 51.0244 19.773 51.5984 19.521C52.1864 19.255 52.8934 19.122 53.7194 19.122C54.3634 19.122 54.9234 19.171 55.3994 19.269C55.8894 19.367 56.2954 19.493 56.6174 19.647C56.9394 19.787 57.1774 19.92 57.3314 20.046V22.335H55.5254V20.361C55.6794 20.361 55.8054 20.389 55.9034 20.445C56.0154 20.487 56.0994 20.557 56.1554 20.655C56.2114 20.739 56.2464 20.844 56.2604 20.97C56.2744 21.096 56.2604 21.236 56.2184 21.39C56.0644 21.152 55.8614 20.956 55.6094 20.802C55.3574 20.634 55.0704 20.515 54.7484 20.445C54.4404 20.361 54.0974 20.319 53.7194 20.319C52.9914 20.319 52.4454 20.48 52.0814 20.802C51.7174 21.11 51.5354 21.509 51.5354 21.999C51.5354 22.307 51.6124 22.566 51.7664 22.776C51.9344 22.986 52.1514 23.161 52.4174 23.301C52.6974 23.427 53.0054 23.539 53.3414 23.637C53.6914 23.735 54.0554 23.833 54.4334 23.931C54.8534 24.029 55.2734 24.148 55.6934 24.288C56.1134 24.428 56.4914 24.61 56.8274 24.834C57.1774 25.058 57.4504 25.345 57.6464 25.695C57.8564 26.045 57.9614 26.486 57.9614 27.018C57.9614 27.62 57.7934 28.166 57.4574 28.656C57.1214 29.132 56.6384 29.51 56.0084 29.79C55.3924 30.07 54.6434 30.21 53.7614 30.21C53.0894 30.21 52.4804 30.154 51.9344 30.042C51.4024 29.944 50.9264 29.811 50.5064 29.643C50.0864 29.461 49.7084 29.265 49.3724 29.055V26.64H51.2204V29.307C51.0104 29.181 50.8494 29.055 50.7374 28.929C50.6254 28.803 50.5484 28.677 50.5064 28.551C50.4644 28.425 50.4504 28.299 50.4644 28.173C50.4784 28.033 50.5064 27.893 50.5484 27.753C50.7864 28.047 51.0664 28.285 51.3884 28.467C51.7104 28.649 52.0674 28.789 52.4594 28.887C52.8514 28.971 53.2784 29.013 53.7404 29.013C54.2444 29.013 54.6784 28.943 55.0424 28.803C55.4064 28.663 55.6864 28.46 55.8824 28.194C56.0924 27.928 56.1974 27.606 56.1974 27.228ZM62.0692 17.001C61.7052 17.001 61.3972 16.889 61.1452 16.665C60.9072 16.427 60.7882 16.112 60.7882 15.72C60.7882 15.328 60.9072 15.02 61.1452 14.796C61.3972 14.572 61.7052 14.46 62.0692 14.46C62.4332 14.46 62.7342 14.572 62.9722 14.796C63.2242 15.02 63.3502 15.328 63.3502 15.72C63.3502 16.112 63.2242 16.427 62.9722 16.665C62.7342 16.889 62.4332 17.001 62.0692 17.001ZM63.0982 19.332V28.299C63.0982 28.607 63.2592 28.81 63.5812 28.908C63.9172 29.006 64.3372 29.055 64.8412 29.055H64.8622V30H59.4652V29.055H59.4862C59.9902 29.055 60.4032 29.006 60.7252 28.908C61.0612 28.81 61.2292 28.607 61.2292 28.299V21.285C61.2292 20.977 61.1032 20.767 60.8512 20.655C60.5992 20.543 60.2072 20.438 59.6752 20.34L59.4442 20.298V19.332H63.0982ZM77.1753 20.823C76.5593 20.767 76.0343 20.739 75.6003 20.739C75.1663 20.739 74.8023 20.781 74.5083 20.865C74.2283 20.949 73.9973 21.11 73.8153 21.348L73.5423 21.033C73.7383 20.627 73.9623 20.284 74.2143 20.004C74.4803 19.71 74.7673 19.472 75.0753 19.29C75.3833 19.108 75.7123 18.989 76.0623 18.933C76.4123 18.863 76.7833 18.849 77.1753 18.891V20.823ZM71.0433 26.829C70.2313 26.829 69.5033 26.675 68.8593 26.367C68.2293 26.045 67.7323 25.597 67.3683 25.023C67.0043 24.449 66.8223 23.777 66.8223 23.007C66.8223 22.237 67.0043 21.565 67.3683 20.991C67.7463 20.403 68.2503 19.948 68.8803 19.626C69.5243 19.29 70.2453 19.122 71.0433 19.122C71.8553 19.122 72.5763 19.29 73.2063 19.626C73.8503 19.948 74.3543 20.403 74.7183 20.991C75.0963 21.565 75.2853 22.237 75.2853 23.007C75.2853 23.777 75.0963 24.449 74.7183 25.023C74.3543 25.597 73.8503 26.045 73.2063 26.367C72.5763 26.675 71.8553 26.829 71.0433 26.829ZM71.0433 25.611C71.5333 25.611 71.9533 25.513 72.3033 25.317C72.6673 25.107 72.9473 24.813 73.1433 24.435C73.3393 24.043 73.4373 23.567 73.4373 23.007C73.4373 22.447 73.3393 21.971 73.1433 21.579C72.9473 21.173 72.6673 20.865 72.3033 20.655C71.9533 20.445 71.5333 20.34 71.0433 20.34C70.5673 20.34 70.1473 20.445 69.7833 20.655C69.4333 20.865 69.1603 21.173 68.9643 21.579C68.7683 21.971 68.6703 22.447 68.6703 23.007C68.6703 23.567 68.7683 24.043 68.9643 24.435C69.1603 24.813 69.4333 25.107 69.7833 25.317C70.1473 25.513 70.5673 25.611 71.0433 25.611ZM70.7283 34.956C69.7903 34.956 68.9433 34.865 68.1873 34.683C67.4313 34.515 66.8293 34.228 66.3813 33.822C65.9473 33.416 65.7303 32.877 65.7303 32.205C65.7303 31.869 65.8143 31.561 65.9823 31.281C66.1643 31.001 66.4303 30.735 66.7803 30.483C67.1303 30.245 67.5783 30 68.1243 29.748L68.9013 30.294C68.5513 30.462 68.2643 30.644 68.0403 30.84C67.8163 31.036 67.6483 31.239 67.5363 31.449C67.4383 31.659 67.3893 31.883 67.3893 32.121C67.3893 32.457 67.5083 32.737 67.7463 32.961C67.9843 33.199 68.3483 33.381 68.8383 33.507C69.3423 33.633 69.9793 33.696 70.7493 33.696H71.4843C72.1983 33.696 72.8283 33.605 73.3743 33.423C73.9343 33.255 74.3683 33.017 74.6763 32.709C74.9983 32.401 75.1593 32.051 75.1593 31.659C75.1593 31.253 75.0053 30.959 74.6973 30.777C74.4033 30.609 73.8433 30.525 73.0173 30.525H68.3133H68.2293C67.7813 30.287 67.4243 30.063 67.1583 29.853C66.8923 29.629 66.7033 29.398 66.5913 29.16C66.4933 28.922 66.4443 28.67 66.4443 28.404C66.4443 28.068 66.5283 27.753 66.6963 27.459C66.8643 27.165 67.1163 26.885 67.4523 26.619C67.7883 26.339 68.2153 26.08 68.7333 25.842L69.5313 26.409C69.2513 26.549 69.0063 26.696 68.7963 26.85C68.5863 27.004 68.4253 27.165 68.3133 27.333C68.2153 27.501 68.1663 27.683 68.1663 27.879C68.1663 28.173 68.3133 28.39 68.6073 28.53C68.9153 28.656 69.3493 28.719 69.9093 28.719H73.0593C73.8993 28.719 74.5993 28.817 75.1593 29.013C75.7333 29.195 76.1673 29.482 76.4613 29.874C76.7553 30.252 76.9023 30.735 76.9023 31.323C76.9023 32.149 76.6503 32.828 76.1463 33.36C75.6563 33.906 74.9983 34.305 74.1723 34.557C73.3603 34.823 72.4713 34.956 71.5053 34.956H70.7283ZM78.0858 30V29.055H78.1278C78.4638 29.055 78.7578 29.034 79.0098 28.992C79.2758 28.95 79.4788 28.873 79.6188 28.761C79.7728 28.649 79.8498 28.495 79.8498 28.299V21.285C79.8498 21.075 79.7938 20.921 79.6818 20.823C79.5698 20.711 79.3948 20.62 79.1568 20.55C78.9328 20.48 78.6458 20.41 78.2958 20.34L78.0858 20.298V19.332H81.5298V21.558L81.7188 21.789V28.845C81.7188 28.887 81.8028 28.929 81.9708 28.971C82.1388 28.999 82.3418 29.02 82.5798 29.034C82.8178 29.048 83.0348 29.055 83.2308 29.055H83.2938V30H78.0858ZM90.3498 30H85.1418V29.055H85.1838C85.3798 29.055 85.5968 29.048 85.8348 29.034C86.0728 29.02 86.2758 28.999 86.4438 28.971C86.6258 28.929 86.7168 28.887 86.7168 28.845V22.734C86.7168 22.202 86.6608 21.768 86.5488 21.432C86.4368 21.096 86.2478 20.851 85.9818 20.697C85.7298 20.529 85.3798 20.445 84.9318 20.445C84.4698 20.445 84.0288 20.536 83.6088 20.718C83.1888 20.9 82.7898 21.173 82.4118 21.537C82.0478 21.887 81.6978 22.328 81.3618 22.86V21.432C81.7398 20.914 82.1178 20.487 82.4958 20.151C82.8878 19.801 83.3078 19.542 83.7558 19.374C84.2038 19.206 84.7008 19.122 85.2468 19.122C85.9188 19.122 86.4998 19.241 86.9898 19.479C87.4938 19.717 87.8858 20.088 88.1658 20.592C88.4458 21.082 88.5858 21.719 88.5858 22.503V28.299C88.5858 28.495 88.6558 28.649 88.7958 28.761C88.9498 28.873 89.1528 28.95 89.4048 28.992C89.6708 29.034 89.9718 29.055 90.3078 29.055H90.3498V30ZM93.7 24.75C93.7 25.422 93.784 26.024 93.952 26.556C94.134 27.088 94.386 27.536 94.708 27.9C95.03 28.264 95.408 28.544 95.842 28.74C96.276 28.922 96.745 29.013 97.249 29.013C97.823 29.013 98.313 28.901 98.719 28.677C99.139 28.453 99.489 28.18 99.769 27.858C100.063 27.522 100.308 27.193 100.504 26.871L101.491 27.753C101.225 28.201 100.896 28.614 100.504 28.992C100.112 29.37 99.643 29.671 99.097 29.895C98.565 30.105 97.935 30.21 97.207 30.21C96.185 30.21 95.261 29.986 94.435 29.538C93.623 29.09 92.979 28.453 92.503 27.627C92.027 26.801 91.789 25.828 91.789 24.708C91.789 23.602 92.013 22.636 92.461 21.81C92.909 20.97 93.511 20.312 94.267 19.836C95.037 19.36 95.891 19.122 96.829 19.122C97.599 19.122 98.271 19.248 98.845 19.5C99.433 19.752 99.923 20.13 100.315 20.634C100.721 21.124 101.029 21.747 101.239 22.503C101.449 23.259 101.554 24.141 101.554 25.149H93.322V23.973H100.147L99.559 24.435C99.545 23.735 99.482 23.126 99.37 22.608C99.258 22.09 99.09 21.663 98.866 21.327C98.642 20.991 98.362 20.739 98.026 20.571C97.69 20.403 97.291 20.319 96.829 20.319C96.395 20.319 95.989 20.424 95.611 20.634C95.233 20.83 94.897 21.124 94.603 21.516C94.323 21.894 94.099 22.356 93.931 22.902C93.777 23.448 93.7 24.064 93.7 24.75ZM110.496 19.185V21.054C110.398 21.012 110.279 20.984 110.139 20.97C110.013 20.942 109.88 20.921 109.74 20.907C109.6 20.893 109.467 20.886 109.341 20.886C108.963 20.886 108.634 20.942 108.354 21.054C108.074 21.152 107.822 21.306 107.598 21.516C107.388 21.726 107.192 21.992 107.01 22.314C106.828 22.636 106.632 23.021 106.422 23.469V22.083C106.632 21.495 106.891 20.984 107.199 20.55C107.521 20.102 107.892 19.752 108.312 19.5C108.746 19.248 109.236 19.122 109.782 19.122C109.922 19.122 110.055 19.129 110.181 19.143C110.321 19.143 110.426 19.157 110.496 19.185ZM103.146 30V29.055H103.188C103.692 29.055 104.105 29.006 104.427 28.908C104.749 28.81 104.91 28.607 104.91 28.299V21.285C104.91 21.075 104.854 20.921 104.742 20.823C104.63 20.711 104.455 20.62 104.217 20.55C103.993 20.48 103.706 20.41 103.356 20.34L103.146 20.298V19.332H106.59V22.419L106.779 22.23V28.32C106.779 28.544 106.877 28.712 107.073 28.824C107.283 28.922 107.521 28.985 107.787 29.013C108.067 29.041 108.305 29.055 108.501 29.055H108.858V30H103.146Z" fill="white"/>
<rect x="1.30933" y="0.5" width="130" height="44" rx="22" stroke="black" shape-rendering="crispEdges"/>
</g>
<defs>
<filter id="filter0_d_430_71" x="0.809326" y="0" width="135" height="49" filterUnits="userSpaceOnUse" color-interpolation-filters="sRGB">
<feFlood flood-opacity="0" result="BackgroundImageFix"/>
<feColorMatrix in="SourceAlpha" type="matrix" values="0 0 0 0 0 0 0 0 0 0 0 0 0 0 0 0 0 0 127 0" result="hardAlpha"/>
<feOffset dx="4" dy="4"/>
<feComposite in2="hardAlpha" operator="out"/>
<feColorMatrix type="matrix" values="0 0 0 0 0 0 0 0 0 0 0 0 0 0 0 0 0 0 1 0"/>
<feBlend mode="normal" in2="BackgroundImageFix" result="effect1_dropShadow_430_71"/>
<feBlend mode="normal" in="SourceGraphic" in2="effect1_dropShadow_430_71" result="shape"/>
</filter>
</defs>
</svg>
