<svg width="149" height="50" viewBox="0 0 149 50" fill="none" xmlns="http://www.w3.org/2000/svg">
<g filter="url(#filter0_d_430_68)">
<rect y="0.587891" width="145" height="45" rx="22.5" fill="#71CDF5" shape-rendering="crispEdges"/>
<path d="M20.945 16.6649V15.6779H27.371C28.547 15.6779 29.611 15.8529 30.563 16.2029C31.529 16.5389 32.362 17.0289 33.062 17.6729C33.762 18.3169 34.301 19.1009 34.679 20.0249C35.057 20.9349 35.246 21.9569 35.246 23.0909C35.246 24.2249 35.057 25.2539 34.679 26.1779C34.301 27.0879 33.762 27.8789 33.062 28.5509C32.362 29.2089 31.529 29.7129 30.563 30.0629C29.611 30.4129 28.547 30.5879 27.371 30.5879H20.945V29.6009H21.197C21.715 29.6009 22.142 29.5519 22.478 29.4539C22.814 29.3559 22.982 29.1529 22.982 28.8449V17.4209C22.982 17.1409 22.814 16.9449 22.478 16.8329C22.142 16.7209 21.715 16.6649 21.197 16.6649H20.945ZM27.371 16.9169H24.914V29.3489H27.371C28.267 29.3489 29.065 29.2089 29.765 28.9289C30.479 28.6489 31.088 28.2429 31.592 27.7109C32.096 27.1649 32.481 26.5069 32.747 25.7369C33.013 24.9529 33.146 24.0709 33.146 23.0909C33.146 22.1109 33.013 21.2359 32.747 20.4659C32.481 19.6959 32.096 19.0519 31.592 18.5339C31.088 18.0019 30.479 17.6029 29.765 17.3369C29.065 17.0569 28.267 16.9169 27.371 16.9169ZM39.2217 25.3379C39.2217 26.0099 39.3057 26.6119 39.4737 27.1439C39.6557 27.6759 39.9077 28.1239 40.2297 28.4879C40.5517 28.8519 40.9297 29.1319 41.3637 29.3279C41.7977 29.5099 42.2667 29.6009 42.7707 29.6009C43.3447 29.6009 43.8347 29.4889 44.2407 29.2649C44.6607 29.0409 45.0107 28.7679 45.2907 28.4459C45.5847 28.1099 45.8297 27.7809 46.0257 27.4589L47.0127 28.3409C46.7467 28.7889 46.4177 29.2019 46.0257 29.5799C45.6337 29.9579 45.1647 30.2589 44.6187 30.4829C44.0867 30.6929 43.4567 30.7979 42.7287 30.7979C41.7067 30.7979 40.7827 30.5739 39.9567 30.1259C39.1447 29.6779 38.5007 29.0409 38.0247 28.2149C37.5487 27.3889 37.3107 26.4159 37.3107 25.2959C37.3107 24.1899 37.5347 23.2239 37.9827 22.3979C38.4307 21.5579 39.0327 20.8999 39.7887 20.4239C40.5587 19.9479 41.4127 19.7099 42.3507 19.7099C43.1207 19.7099 43.7927 19.8359 44.3667 20.0879C44.9547 20.3399 45.4447 20.7179 45.8367 21.2219C46.2427 21.7119 46.5507 22.3349 46.7607 23.0909C46.9707 23.8469 47.0757 24.7289 47.0757 25.7369H38.8437V24.5609H45.6687L45.0807 25.0229C45.0667 24.3229 45.0037 23.7139 44.8917 23.1959C44.7797 22.6779 44.6117 22.2509 44.3877 21.9149C44.1637 21.5789 43.8837 21.3269 43.5477 21.1589C43.2117 20.9909 42.8127 20.9069 42.3507 20.9069C41.9167 20.9069 41.5107 21.0119 41.1327 21.2219C40.7547 21.4179 40.4187 21.7119 40.1247 22.1039C39.8447 22.4819 39.6207 22.9439 39.4527 23.4899C39.2987 24.0359 39.2217 24.6519 39.2217 25.3379ZM57.01 21.3059C56.996 21.2219 56.898 21.1449 56.716 21.0749C56.548 21.0049 56.331 20.9559 56.065 20.9279C55.813 20.8859 55.547 20.8649 55.267 20.8649H55.225V19.9199H59.719V20.8649H59.677C59.467 20.8649 59.257 20.8929 59.047 20.9489C58.851 20.9909 58.676 21.0749 58.522 21.2009C58.368 21.3269 58.242 21.5089 58.144 21.7469L54.763 30.5879H52.831L49.345 21.5789C49.275 21.3829 49.17 21.2359 49.03 21.1379C48.89 21.0399 48.715 20.9699 48.505 20.9279C48.309 20.8859 48.078 20.8649 47.812 20.8649H47.77V19.9199H52.915V20.8649H52.873C52.579 20.8649 52.285 20.8719 51.991 20.8859C51.711 20.8999 51.48 20.9209 51.298 20.9489C51.116 20.9629 51.025 20.9979 51.025 21.0539L54.175 29.3909L53.965 29.4329L57.01 21.3059ZM62.293 25.3379C62.293 26.0099 62.377 26.6119 62.545 27.1439C62.727 27.6759 62.979 28.1239 63.301 28.4879C63.623 28.8519 64.001 29.1319 64.435 29.3279C64.869 29.5099 65.338 29.6009 65.842 29.6009C66.416 29.6009 66.906 29.4889 67.312 29.2649C67.732 29.0409 68.082 28.7679 68.362 28.4459C68.656 28.1099 68.901 27.7809 69.097 27.4589L70.084 28.3409C69.818 28.7889 69.489 29.2019 69.097 29.5799C68.705 29.9579 68.236 30.2589 67.69 30.4829C67.158 30.6929 66.528 30.7979 65.8 30.7979C64.778 30.7979 63.854 30.5739 63.028 30.1259C62.216 29.6779 61.572 29.0409 61.096 28.2149C60.62 27.3889 60.382 26.4159 60.382 25.2959C60.382 24.1899 60.606 23.2239 61.054 22.3979C61.502 21.5579 62.104 20.8999 62.86 20.4239C63.63 19.9479 64.484 19.7099 65.422 19.7099C66.192 19.7099 66.864 19.8359 67.438 20.0879C68.026 20.3399 68.516 20.7179 68.908 21.2219C69.314 21.7119 69.622 22.3349 69.832 23.0909C70.042 23.8469 70.147 24.7289 70.147 25.7369H61.915V24.5609H68.74L68.152 25.0229C68.138 24.3229 68.075 23.7139 67.963 23.1959C67.851 22.6779 67.683 22.2509 67.459 21.9149C67.235 21.5789 66.955 21.3269 66.619 21.1589C66.283 20.9909 65.884 20.9069 65.422 20.9069C64.988 20.9069 64.582 21.0119 64.204 21.2219C63.826 21.4179 63.49 21.7119 63.196 22.1039C62.916 22.4819 62.692 22.9439 62.524 23.4899C62.37 24.0359 62.293 24.6519 62.293 25.3379ZM75.0833 15.1529V28.8869C75.0833 29.1949 75.2443 29.3979 75.5663 29.4959C75.8883 29.5939 76.3013 29.6429 76.8053 29.6429H76.8473V30.5879H71.4503V29.6429H71.4923C71.9963 29.6429 72.4093 29.5939 72.7313 29.4959C73.0533 29.3979 73.2143 29.1949 73.2143 28.8869V17.1059C73.2143 16.8959 73.1583 16.7349 73.0463 16.6229C72.9343 16.5109 72.7663 16.4199 72.5423 16.3499C72.3183 16.2799 72.0243 16.2169 71.6603 16.1609L71.4293 16.1189V15.1529H75.0833ZM89.1448 25.2539C89.1448 26.3319 88.9068 27.2909 88.4308 28.1309C87.9688 28.9709 87.3248 29.6289 86.4988 30.1049C85.6728 30.5669 84.7278 30.7979 83.6638 30.7979C82.5998 30.7979 81.6548 30.5669 80.8288 30.1049C80.0028 29.6289 79.3518 28.9709 78.8758 28.1309C78.4138 27.2909 78.1828 26.3319 78.1828 25.2539C78.1828 24.4419 78.3158 23.6999 78.5818 23.0279C78.8478 22.3419 79.2258 21.7539 79.7158 21.2639C80.2198 20.7739 80.8008 20.3959 81.4588 20.1299C82.1308 19.8499 82.8658 19.7099 83.6638 19.7099C84.4618 19.7099 85.1898 19.8499 85.8478 20.1299C86.5198 20.3959 87.1008 20.7739 87.5908 21.2639C88.0948 21.7539 88.4798 22.3419 88.7458 23.0279C89.0118 23.6999 89.1448 24.4419 89.1448 25.2539ZM80.1568 25.2539C80.1568 26.1219 80.2968 26.8849 80.5768 27.5429C80.8708 28.2009 81.2768 28.7119 81.7948 29.0759C82.3268 29.4259 82.9498 29.6009 83.6638 29.6009C84.3918 29.6009 85.0148 29.4259 85.5328 29.0759C86.0508 28.7119 86.4498 28.2009 86.7298 27.5429C87.0238 26.8849 87.1708 26.1219 87.1708 25.2539C87.1708 24.3719 87.0238 23.6089 86.7298 22.9649C86.4498 22.3069 86.0508 21.8029 85.5328 21.4529C85.0148 21.0889 84.3918 20.9069 83.6638 20.9069C82.9498 20.9069 82.3268 21.0889 81.7948 21.4529C81.2768 21.8029 80.8708 22.3069 80.5768 22.9649C80.2968 23.6089 80.1568 24.3719 80.1568 25.2539ZM96.5842 35.2709H90.8092V34.3259H90.8512C91.1872 34.3259 91.4812 34.3049 91.7332 34.2629C91.9992 34.2209 92.2022 34.1439 92.3422 34.0319C92.4962 33.9199 92.5732 33.7659 92.5732 33.5699V21.8729C92.5732 21.6629 92.5172 21.5089 92.4052 21.4109C92.2932 21.2989 92.1182 21.2079 91.8802 21.1379C91.6562 21.0679 91.3692 20.9979 91.0192 20.9279L90.8092 20.8859V19.9199H94.2532V22.5659L94.4422 22.8179V34.1159C94.4422 34.1579 94.5332 34.1929 94.7152 34.2209C94.8972 34.2629 95.1072 34.2909 95.3452 34.3049C95.5832 34.3189 95.7932 34.3259 95.9752 34.3259H96.5842V35.2709ZM97.8652 30.7979C97.3052 30.7979 96.8082 30.7209 96.3742 30.5669C95.9402 30.3989 95.5342 30.1539 95.1562 29.8319C94.7922 29.4959 94.4352 29.0619 94.0852 28.5299V26.7029C94.4072 27.3469 94.7502 27.8859 95.1142 28.3199C95.4922 28.7399 95.9052 29.0619 96.3532 29.2859C96.8012 29.4959 97.2842 29.6009 97.8022 29.6009C98.3062 29.6009 98.7542 29.4959 99.1462 29.2859C99.5382 29.0759 99.8602 28.7749 100.112 28.3829C100.378 27.9909 100.574 27.5289 100.7 26.9969C100.84 26.4509 100.91 25.8489 100.91 25.1909C100.91 24.5329 100.84 23.9449 100.7 23.4269C100.574 22.8949 100.385 22.4399 100.133 22.0619C99.8812 21.6839 99.5662 21.3969 99.1882 21.2009C98.8102 21.0049 98.3762 20.9069 97.8862 20.9069C97.3402 20.9069 96.8362 21.0259 96.3742 21.2639C95.9262 21.4879 95.5132 21.8309 95.1352 22.2929C94.7572 22.7409 94.4072 23.2939 94.0852 23.9519V22.1669C94.4632 21.6069 94.8412 21.1519 95.2192 20.8019C95.5972 20.4379 96.0102 20.1649 96.4582 19.9829C96.9202 19.8009 97.4382 19.7099 98.0122 19.7099C98.9922 19.7099 99.8462 19.9409 100.574 20.4029C101.302 20.8509 101.869 21.4879 102.275 22.3139C102.681 23.1259 102.884 24.0849 102.884 25.1909C102.884 26.2969 102.674 27.2699 102.254 28.1099C101.848 28.9499 101.267 29.6079 100.511 30.0839C99.7552 30.5599 98.8732 30.7979 97.8652 30.7979ZM106.733 25.3379C106.733 26.0099 106.817 26.6119 106.985 27.1439C107.167 27.6759 107.419 28.1239 107.741 28.4879C108.063 28.8519 108.441 29.1319 108.875 29.3279C109.309 29.5099 109.778 29.6009 110.282 29.6009C110.856 29.6009 111.346 29.4889 111.752 29.2649C112.172 29.0409 112.522 28.7679 112.802 28.4459C113.096 28.1099 113.341 27.7809 113.537 27.4589L114.524 28.3409C114.258 28.7889 113.929 29.2019 113.537 29.5799C113.145 29.9579 112.676 30.2589 112.13 30.4829C111.598 30.6929 110.968 30.7979 110.24 30.7979C109.218 30.7979 108.294 30.5739 107.468 30.1259C106.656 29.6779 106.012 29.0409 105.536 28.2149C105.06 27.3889 104.822 26.4159 104.822 25.2959C104.822 24.1899 105.046 23.2239 105.494 22.3979C105.942 21.5579 106.544 20.8999 107.3 20.4239C108.07 19.9479 108.924 19.7099 109.862 19.7099C110.632 19.7099 111.304 19.8359 111.878 20.0879C112.466 20.3399 112.956 20.7179 113.348 21.2219C113.754 21.7119 114.062 22.3349 114.272 23.0909C114.482 23.8469 114.587 24.7289 114.587 25.7369H106.355V24.5609H113.18L112.592 25.0229C112.578 24.3229 112.515 23.7139 112.403 23.1959C112.291 22.6779 112.123 22.2509 111.899 21.9149C111.675 21.5789 111.395 21.3269 111.059 21.1589C110.723 20.9909 110.324 20.9069 109.862 20.9069C109.428 20.9069 109.022 21.0119 108.644 21.2219C108.266 21.4179 107.93 21.7119 107.636 22.1039C107.356 22.4819 107.132 22.9439 106.964 23.4899C106.81 24.0359 106.733 24.6519 106.733 25.3379ZM123.53 19.7729V21.6419C123.432 21.5999 123.313 21.5719 123.173 21.5579C123.047 21.5299 122.914 21.5089 122.774 21.4949C122.634 21.4809 122.501 21.4739 122.375 21.4739C121.997 21.4739 121.668 21.5299 121.388 21.6419C121.108 21.7399 120.856 21.8939 120.632 22.1039C120.422 22.3139 120.226 22.5799 120.044 22.9019C119.862 23.2239 119.666 23.6089 119.456 24.0569V22.6709C119.666 22.0829 119.925 21.5719 120.233 21.1379C120.555 20.6899 120.926 20.3399 121.346 20.0879C121.78 19.8359 122.27 19.7099 122.816 19.7099C122.956 19.7099 123.089 19.7169 123.215 19.7309C123.355 19.7309 123.46 19.7449 123.53 19.7729ZM116.18 30.5879V29.6429H116.222C116.726 29.6429 117.139 29.5939 117.461 29.4959C117.783 29.3979 117.944 29.1949 117.944 28.8869V21.8729C117.944 21.6629 117.888 21.5089 117.776 21.4109C117.664 21.2989 117.489 21.2079 117.251 21.1379C117.027 21.0679 116.74 20.9979 116.39 20.9279L116.18 20.8859V19.9199H119.624V23.0069L119.813 22.8179V28.9079C119.813 29.1319 119.911 29.2999 120.107 29.4119C120.317 29.5099 120.555 29.5729 120.821 29.6009C121.101 29.6289 121.339 29.6429 121.535 29.6429H121.892V30.5879H116.18Z" fill="black"/>
<rect x="0.5" y="1.08789" width="144" height="44" rx="22" stroke="black" shape-rendering="crispEdges"/>
</g>
<defs>
<filter id="filter0_d_430_68" x="0" y="0.587891" width="149" height="49" filterUnits="userSpaceOnUse" color-interpolation-filters="sRGB">
<feFlood flood-opacity="0" result="BackgroundImageFix"/>
<feColorMatrix in="SourceAlpha" type="matrix" values="0 0 0 0 0 0 0 0 0 0 0 0 0 0 0 0 0 0 127 0" result="hardAlpha"/>
<feOffset dx="4" dy="4"/>
<feComposite in2="hardAlpha" operator="out"/>
<feColorMatrix type="matrix" values="0 0 0 0 0 0 0 0 0 0 0 0 0 0 0 0 0 0 1 0"/>
<feBlend mode="normal" in2="BackgroundImageFix" result="effect1_dropShadow_430_68"/>
<feBlend mode="normal" in="SourceGraphic" in2="effect1_dropShadow_430_68" result="shape"/>
</filter>
</defs>
</svg>
